<?xml version="1.0" encoding="utf-8"?>
<!-- Generator: Adobe Illustrator 22.0.0, SVG Export Plug-In . SVG Version: 6.00 Build 0)  -->
<svg version="1.1" id="Layer_1" xmlns="http://www.w3.org/2000/svg" xmlns:xlink="http://www.w3.org/1999/xlink" x="0px" y="0px"
	 viewBox="0 0 595.3 595.3" style="enable-background:new 0 0 595.3 595.3;" xml:space="preserve">
<style type="text/css">
	.st0{fill:#FFFFFF;}
</style>
<g>
	<path d="M596,596.5c-198.2,0-396.5,0-594.7,0c0-198.2,0-396.5,0-594.7c198.2,0,396.5,0,594.7,0c0,1.9,0.1,3.8,0.1,5.7
		c0,194.5,0,388.9,0,583.4C596.1,592.8,596,594.6,596,596.5z M495.7,577.4c0-186.9,0-373.2,0-559.9c-2.2-0.1-4.1-0.3-5.9-0.3
		c-127.9,0-255.7,0-383.6,0c-6.4,0-6.4,0-6.4,6.7c0,182.5,0,364.9,0,547.4c0,2,0.2,4,0.3,6.2C232.3,577.4,363.7,577.4,495.7,577.4z"
		/>
	<path class="st0" d="M495.7,577.4c-132.1,0-263.5,0-395.7,0c-0.1-2.1-0.3-4.1-0.3-6.2c0-182.5,0-364.9,0-547.4c0-6.6,0-6.7,6.4-6.7
		c127.9,0,255.7,0,383.6,0c1.8,0,3.7,0.2,5.9,0.3C495.7,204.2,495.7,390.5,495.7,577.4z M373.1,488.4c-0.2-0.8-0.2-1.7-0.6-2.4
		c-10.2-19.5-22.7-37.2-39.5-51.6c1.3-0.8,3.2-1.4,3.9-2.6c5-8.5,7.4-17.9,8.6-28.5c-1.4,0.9-2.2,1.2-2.7,1.7
		c-6.4,7.2-9.9,15.8-11.6,25.2c-0.2,1,0.6,2.3,0.9,3.4c-6.4,1.8-9.7,7.2-13.6,11.9c-0.4-0.9-0.9-2.6-1.3-2.6
		c-1.6,0.1-3.2,0.7-4.9,1.1c-10.6,2.6-21.2,5-31.6,7.8c-5.5,1.5-9.3-0.9-11.5-5.2c-3.3-6.3-5.8-12.9-8.4-19.5
		c-2.8-7.2-5.4-14.5-8-21.8c-1-2.7-2.1-5.4-2.9-8.1c-2.2-8.7-4.1-17.5-6.4-26.2c-2.2-8.5-4.9-16.9-6.9-25.4
		c-1.1-4.6-1.5-9.2-7.5-9.9c-0.5-0.1-0.9-1.1-1.3-1.7c-4.9-6.5-9.7-12.9-14.9-19.8c0.2,2,0.3,3.7,0.5,5.4c-1.5,0.5-3,0.9-5,1.4
		c6.6,2.8,8.1,6,6.4,12.9c-0.6,2.3-1.5,4.6-2.6,8.2c2.6-1.8,3.9-2.7,5.2-3.6c0.4,0.2,0.9,0.3,1.3,0.5c-3.1,3.5-3.2,7.8-3.6,12.7
		c-3.1-2-5.3-3.5-7.8-5.1c-1.2,4.5,0.7,7.5,2.8,10.3c0.5,0.6,1.7,0.9,2.6,1c5.5,0.6,10.2-1.4,14.8-4.4c2.1-1.4,4.8-1.8,7.6-2.7
		c4.6,16.6-6,26.9-13.7,39.3c10.2-0.7,9.5-9.6,14.1-14.7c1.4,3.4,2.2,6.7,3.9,9.5c3.1,5.2,1.8,9.7-2.4,13.1
		c-2.5,2.1-2.3,3.8-1.8,6.4c1.1,5.4,2,10.9,2.9,16.4c0.1,0.9-0.7,1.9-0.9,2.9c-0.2,0.5-0.1,1.1-0.2,2c1.5,0,2.9,0,4.8,0
		c0,4.2-0.1,8.2,0,12.2c0.8,25.1,1.7,50.3,2.4,75.4c0.1,3.2,0.6,5.1,4.5,5c18.5-0.1,36.9-0.1,55.4,0c2.4,0,3.9-0.7,4.7-3.1
		c1.6-5.2,3.3-10.4,5-15.6c1.1-3.6,0.8-6.9-1.4-10.1c-1.8-2.6-3-5.5-1-8.8c0.3-0.5,0.2-1.6,0-2.2c-4.8-12.7,0.3-23.2,7.4-33.3
		c-2,9.1-2.9,18.2,0.6,27.2c0.2,0.5,0.3,1.3,0.1,1.8c-1.9,3.7-3.8,7.3-5.8,11c3.2,3.9,3.9,8.3,3.3,13.5c-0.5,4.6,1,9.4,1.4,14.2
		c0.1,1.6-0.4,3.2-0.7,5.1c21.5,0,42.6,0,64.6,0c-0.8-5-1.4-9.4-2.3-13.9c-0.1-0.4-1.4-0.5-2.1-0.7c6.3-7.3,6.4-17,10.2-25.3
		c-0.9-0.8-1.8-1.6-2.7-2.5l-0.2,0.2c3.1-1.8,6.1-3.5,9.6-5.5c0.3,1.3,0.9,3.3,1,5.3c0.1,10.6-3.6,20.2-8.3,29.4
		c-2.9,5.7-2.9,6.6,3.7,8.3c3.3-9.3,6.5-18.5,9.8-27.8c3.4-9.4,6.8-18.8,10.2-28.2c-0.5,0-1,0.1-1.5,0.1c-0.9-1.6-2.4-3.1-2.4-4.8
		c-0.1-2.2,0.8-4.5,1.5-6.6c0.1-0.3,1.5-0.1,2.1-0.4c1.7-0.9,4-1.6,5-3.1c1.4-2.2,2.3-5,2.5-7.6c0.1-2.2,0.7-3.3,2.5-4.4
		c1.1-0.7,1.7-2.3,2.6-3.3c2-2.3,4.1-4.6,6.1-7c0.5,0.3,1,0.7,1.5,1c-0.8,2.8-1.7,5.6-2.6,8.7c7.9-4.1,13-2.5,16.2,4.7
		c1.3,3,1.6,5.5-1.7,7.5c-1.7,1.1-3.3,2.7-4.4,4.4c-5.5,8.1-6.1,9.5,3.4,14c8.4,4,17.4,6.8,26.1,10.1c1.7-2.2,3.6-4.7,6-7.9
		c-3.6-3.6-7.4-7.4-11.4-11c-4.8-4.4-10.5-7.4-11.2-15.5c-0.5-5.8-4.3-11.3-6.9-16.7c-2.2-4.4-4.9-8.6-7-12.3
		c-5.6,1.6-9.8,4.2-15.7,4.4c2.3-2.6,3.8-4.4,5.4-5.9c0.7-0.7,1.7-1.3,2.7-1.5c4.9-0.9,5.3-1.2,3.6-5.8c-1.3-3.6-3.3-6.9-4.9-10.4
		c3.5-1.3,4.8,0.8,6.2,3c2,3.3,3.8,7.1,6.6,9.5c2.9,2.4,7.7,5.6,10.4,4.7c4.3-1.4,7.7-0.8,11.5,0.1c2.1,0.5,4.3,1,6.5,1.4
		c0.2-0.4,0.3-0.8,0.5-1.2c-2.2-1.5-4.3-3.1-6.5-4.6c-12.8-8.7-25.7-17.5-38.5-26.2c-4-2.7-9.6-3.5-11.6-9.1
		c1.4-4.1,2.9-8.4,4.7-13.7c-0.3-0.5-1.2-2.3-2.2-4.4c1.5,0.2,2.5,0.4,3,0.4c-0.4-3.5-0.7-6.7-1-10c11.7,3.2,9.8,13.7,11.7,22
		c0.5-0.1,1-0.2,1.4-0.3c0-4.5,0-9,0-13.5c0.3,0,0.6,0,0.9,0c0.3,1.4,0.6,2.9,0.8,4.1c5.8,0.7,3-5.7,7.5-6.6
		c-5.9-4.7-10.9-8.6-16.5-13.1c10.7-0.1,12.4,0.2,16.8,3.1c-1-2.2-1.4-3.5-2.1-4.6c-2.4-3.9-6.7-4.6-10.5-5.9
		c-2.8-1-3.7-2.2-2.9-4.9c12.9,2.1,12.9,2.1,16.9-0.4c-3.6-3.2-3.7-7.6-4.2-11.9c-7.5-1.9-22.4-14.6-20.8-17.8
		c1.7-0.6,3.3-1.2,5.4-1.9c-2-0.9-3.5-1.6-4.8-2.2c0.5-1.1,1.4-2.7,1.1-2.9c-4.4-4-9-7.9-14-12.3c1.4-1.1,3.1-2.8,5.1-4.2
		c3.1-2.2,3.7-4.2,1.4-7.1c-1.7-2-3.8-3.7-5.8-5.5c1.2-2.3,2.2-4.3,3.1-6.1c7.4-0.7,9.9-2.8,9.5-9.8c-0.3-5.3-2.1-10.6-3.2-15.9
		c-0.5-2.4-2.2-5.1-1.7-7.2c1.1-4-0.9-5.7-3.7-8.1c-1.6,2.3-3.1,4.5-4.6,6.6c-0.5-0.3-0.9-0.6-1.4-1c3.6-5.2,7.1-10.6,11-15.6
		c0.8-1,3.8-1.3,5.1-0.7c2.1,1,3.8,3,5.6,4.6c-3.3-1.3-6.6-3.2-9.9-0.6c-1,0.8-1.3,2.6-1.9,3.9c1.1-0.1,2.2-0.3,3.3-0.2
		c1.2,0.1,2.4,0.6,3.7,0.6c2.4,0.1,4.5-0.4,5.2-3.2c2.8,4.9,5.6,9.8,8.9,15.4c0.7-2.2,0.8-5,2.2-6.7c3.3-4,3.3-8.6,2.4-13
		c-2-10.3-4.5-20.4-6.9-30.6c-0.4-1.6-1.6-4.3-1.1-4.7c4.5-3.1,0-4.9-1-6.8c-5.1-9-11.3-17.5-11.8-28.6c-0.1-2.7-1.9-5.5-3.5-7.9
		c-2.4-3.4-5.3-6.5-8-9.7c-0.9-1.1-2.4-2.9-2.1-3.5c1.3-2.5-0.5-3.3-1.7-4.7c-3.9-4.6-7.6-9.3-11.5-13.9c-0.6-0.8-1.4-1.5-2.3-2
		c-2.5-1.4-4.6-2.9-4-6.3c0.1-0.8-1.3-1.9-2-2.8c-2.5-3.3-5.7-6.3-7.5-10c-4-8.6-10.2-14.1-19.2-17.1c-3.4-1.1-5.8-3.8-6.3-7.7
		c-0.2-1.1-1.2-2.5-2.2-2.8c-6.7-2.4-13.4-4.9-20.3-6.7c-6.7-1.8-13.5-2.9-20.2-4.4c-6.8-1.5-12.8,3.6-19.8,1.8
		c-3.5-0.9-7.5,0.2-11.3,0.5c-0.5,0-1.1,0.4-1.5,0.8c-4.4,4.3-9.2,7.7-15.9,7.2c-1.8-0.2-4.1,0.4-5.4-0.5c-4.9-3.4-9.1,4.6-13.8,0.7
		c0,0-0.3,0.3-0.4,0.4c-1.7,5-6.1,5.5-10.2,5.7c-8.1,0.4-12.5,7-18.7,10.5c-0.5,0.3-1,1-1,1.5c0.1,5.6-4.3,7.7-7.9,10.5
		c-1.5,1.2-3.4,3.1-3.4,4.6c0.2,6.7,0.7,13.4,1.6,20c0.5,3.9-0.9,6.4-3.4,9.2c-3,3.3-5.2,7.4-7.5,11.3c-1.2,1.9-1.7,4.2-2.8,6.2
		c-3.2,6.3-6.5,12.6-9.8,18.9c-0.2,0.4,0.4,1.2,0.3,1.6c-1.7,3.9,2.5,7.6-0.3,11.9c-2.4,3.8-3.3,8.5-4.7,12.9
		c-0.9,2.8-1.4,5.7-1.9,8.6c-0.8,4.3-1.2,8.8-2.2,13.1c-1,4.4-2.6,8.7-3.9,13.1c0.3,0.1,0.5,0.2,0.8,0.3c1.6-2.8,3.2-5.5,4.9-8.5
		c5.9,1.9,4.4,6.6,3.9,10c-2.1,15.4,3.3,28.9,9.6,42.3c0.8,1.7,2.2,3,3.3,4.5c0.5-0.2,0.9-0.5,1.4-0.7c-0.2-3.5-0.3-7-0.6-10.5
		c-0.5-6.7-1.3-13.4-1.5-20.1c-0.1-3.4,0.3-7,4.9-9.8c2.1,7.5-0.9,15.5,4.3,22.9c0.8-3,1.6-4.9,1.7-6.9c0.3-9.2,0.7-18.4,0.5-27.6
		c-0.3-14.9-1.4-29.7-1.5-44.6c0-7.8,2.2-15.4,8-21.8c0.4,1.8,0.7,2.9,1.3,5.5c3.7-7.4,6.4-13.8,9.9-19.7c4-6.9,8.4-13.4,12.9-20
		c1.9-2.7,4.4-3.5,7.5-1.4c2.6,1.7,5.6,4.4,8.1,4.1c5.7-0.8,11.3,4,16.8,0c4.1,2,5.6-3.6,8.9-3.2c0.8,1.9,1.5,3.6,1.9,4.6
		c2.2-0.7,4.1-2,5.9-1.9c10.5,0.7,20.9,1.6,31.3,2.7c10.2,1.1,19.6,6.2,29.9,7c5.5,5,12.5,1.7,18.6,2.8c3.9,0.7,7.1,0.3,9.1,4.3
		c0.5,1,1.9,1.9,3,2c2.9,0.4,3.7,2.8,5.3,4.6c4.4,4.9-0.9,11.5,3.1,16.4c0.1,0.1-0.8,0.9-1,1.4c-0.8,1.9-1.7,3.8-2.3,5.7
		c-2.4,8.4-1.4,16.5,2.1,24.6c2.6,6.1,4.5,12.7,5.9,19.2c4.9,24.5,2.4,48.9-2.7,73c-1.2,5.9-0.6,10.9,4.6,14.7
		c1.5,1.1,2.6,2.8,3.5,4.3c0.5,0.7,0.6,2.5,0.3,2.7c-4,2.3-2.7,6.1-3,9.5c-0.4,5.4-0.3,5.4-5.5,5.9c-1.1,2.5-2.1,4.7-3.4,7.6
		c-1-2.1-1.5-3-1.9-4c1.6,6.6-3.7,10.8-5.7,16.2c0-2.5,0-5,0-7c-3,1.8-7.7,3.1-8.3,5.3c-1.2,5-5.6,4-8.1,5.9
		c-2.6,1.9-4.5-0.2-3.9-3.8c0.1-0.8,0-1.6,0-1.5c-2.9,0.4-5.6,0.7-8.3,1.2c-1.6,0.3-3.4,0.4-2.3,3.1c1.3,3,0.1,2.9-2.9,2.9
		c-5.8,0-6.6,6.9-10.7,9.5c-0.1,0,0,0.4,0.1,0.6c0.7,0.3,1.3,0.5,2.4,0.9c-0.8,0.6-1.2,1.2-1.7,1.3c-5.9,0.8-10.9,2.9-13.3,9
		c-0.4,0.9-1.9,1.6-3,1.9c-5.7,1.2-11.4,2.8-17.2,3.2c-5.5,0.4-11-1.3-16.3,1.9c-1.9,1.2-4.8,0.9-7.2,1.4c0.1,0.4,0.1,0.8,0.2,1.2
		c8.9,0.9,17.8,1.8,27,2.7c-0.6,2-1.1,3.5-1.5,4.9c3.5-3.2,6-0.7,7.7,0.4c2-1.2,4.8-3.1,5-2.9c2.3,3,7.6,4.5,5.1,9.8
		c-1.1,0.1-2.1,0.1-3.1,0.2c-0.3,0.5-0.7,1.1-1,1.6c1.2,0.7,2.6,1.3,3.7,2.2c3.4,2.6,4.1,6.5,4.5,10.2c0.4,3.9,0.1,7.8,0.1,11.7
		c2.5-3.6,7.3-1.5,9.7-5.5c2.1-3.6,3-6.5,2.4-9.8c3-1.4,5.9-2.7,8.9-4.1c-1.2-1.5-2.3-2.9-3.4-4.3c4.1-2.3,6.4-0.1,8.1,2.2
		c1.6-1.2,2.9-2.2,4.1-3.2c0.7,1.2,1.4,2.4,2.1,3.6c-2.4,0.7-4.8,1.4-7.2,2.1c0.1,0.4,0.2,0.8,0.3,1.2c1.4,0.3,2.7,0.6,4.3,1
		c-0.3,1.5-0.6,2.9-0.9,4.6c2-0.2,3.6-0.3,4.8-0.4c-0.5-3.1-1-5.9-1.5-8.7c5.5,2.1,7.5,4.5,6.1,8.2c-1.7,4.3-3.9,8.3-5.9,12.5
		c-0.8,1.7-1.5,3.5-2.8,6.6c4.9-1.9,8.2-3.1,11.6-4.4c-0.1-0.4-0.2-0.7-0.3-1.1c-1.4,0.2-2.8,0.4-4.8,0.7c1.9-6.4,3.4-12.1,8-16.3
		c-0.2,1.9-0.9,3.6-1.5,5.3c-0.6,1.8-1.2,3.7-1.9,5.8c3.6-0.4,6.4-0.8,9.2-1.1c0.1-0.3,0.3-0.7,0.4-1c-1.8-0.9-3.6-1.7-5.3-2.6
		c6.8,0.1,6.8,0.1,9.8-6.8c0.6-1.3,0.9-2.9,1.9-3.8c0.9-0.9,1.8-1.7,4-0.6c5.1,2.5,7.3,5.3,3.7,9.6c-5.2,6.1-1.5,13.7-4.8,19.9
		c-0.2,0.3,0,0.9,0.2,1.2c2.2,3.6,4.5,7.1,6.7,10.8c0.6,1.1,0.8,2.5,1.1,3.8c-4.2-2.2-8-4.2-11.5-6.1c-2.6,7.5-5.1,14.4-7.2,21.4
		c-1.6,5.4-2.9,10.9-4.1,16.4c-0.3,1.3,0.1,4,0.5,4.1c4.2,0.7,2.4,3.5,2.3,5.7c-0.1,3.5,1.7,4.4,5.4,2.9c0.6-0.3,1.7-0.1,2.2,0.3
		c3.1,2.7,2.4,6.3-1.3,7.7c-0.7,0.3-1.2,1.1-1.8,1.7c0.8,0.3,1.5,0.7,2.3,0.9c0.9,0.3,1.9,0.4,3.3,0.8c-1,1.3-1.7,2.2-2.2,3
		c1.1,2,1.9,4.2,3.4,5.7c1.3,1.4,3.3,1.6,2.9,4.7c-0.3,1.9,2.6,4.2,3.3,6.5c0.6,1.8,0,4-0.1,6.1c-0.3,0-0.7-0.1-1-0.1
		c-1.2-2.4-2.4-4.8-3.6-7.2C373.9,490.1,373.5,489.2,373.1,488.4z M418.1,510.3c-1.2,0.2-2.5,0.5-3.7,0.7
		c-7.2,1.5-10.1,4.7-10.8,11.8c-0.3,3,0.6,6.2-2.5,8.6c-0.7,0.5-0.6,3.4,0.1,4c3.3,2.9,2.2,6.5,2.3,9.9c0.1,7.1,0,14.2,0,21.6
		c2.7,0,4.7,0,7.2,0c0-2.6,0-4.9,0-7.1c0-6.7,0-13.4,0-20.1c0-2.4,0.7-3.6,3.6-2.5c0,5.2-0.1,10.4,0.1,15.7c0.1,3.3,0.4,6.7,1.3,9.9
		c1.1,3.8,4.9,6.2,8.3,4.8c3.4-1.4,6.3-0.2,9.5-0.2c0.8,0,1.6-0.3,2.6-0.5c0.2-1.5,0.5-3,0.5-4.4c0-9,0.1-18,0-27.1
		c-0.1-5.7-0.6-6-7.2-4.2c0,3.2,0,6.6,0,9.9c0,4.8,0.1,9.6,0,14.5c-0.1,2.8-1.4,5.2-4.3,5.2c-3.3,0.1-3-2.8-3.1-5.1
		c-0.1-1.5,0-2.9,0-4.4c0-6.8,0-13.7,0-20.8c-4.2-0.4-7.6-0.7-11-1c-0.3-5.9-0.9-11.2,6-13.3c1.2-0.4,1.8-2.8,2.7-4.3
		c10.5,1.7,17.1-5.7,25.7-11.9c-1.5,3.4-2.1,5.7-3.4,7.5c-4,5.4,6.6,4.8,3.8,9.6c1.2,0.3,2.5,1.1,3.5,0.8c1.9-0.6,3.6-1.8,5.1-2.6
		c1.1,0.9,2.3,2.6,3.5,2.6c7.7,0.3,15.3,0.1,23,0.1c0,3.4,0,7.4,0,11.6c-8-0.8-10.5,0-12.9,5.4c-3.9,8.9-4.2,18,0.1,26.7
		c1.2,2.5,4.3,5.1,6.8,5.6c4.3,0.7,8.8-0.3,13.3-0.6c0.2-0.7,0.5-1.3,0.5-1.9c0-16.6,0.1-33.1-0.1-49.7c0-1.7-1.8-3.5-2.8-5.3
		c3.5-3.5,4.7-14.5,1.2-17.9c-4.2-4-9-7.5-13.6-11.1c-2.2-1.7-4.4-1.7-6.8,0.1c-4.4,3.3-9,6.4-14.7,10.4c3.5-5.1,6.1-9,9-13.2
		c-12-5.4-23.3-10.5-34.6-15.6c-1.6,1.8-3.7,4.4-6,6.8c-3.9,4.2-4.5,9.9-6.4,14.8c-1.7,4.4-1.1,9.9-0.8,14.9c0.1,2.1,2.4,3.9,3.3,6
		C417.4,506.9,417.6,508.7,418.1,510.3z M303,235.7c0.3,3.9,1,7.5,0.7,10.9c-0.4,4-2.8,4.9-6.4,2.8c-5.3-3-10.2-1.5-14.9,1.2
		c-1.5,0.9-2.6,2-1.9,4.6c1,3.6-1.5,6.6-5,5.7c-4.3-1.1-8.9,0.1-13.1-2.8c-2-1.4-5.9-1.5-8,2.3c-1.4,2.5-3.2,5.1-5.5,6.7
		c-4.6,3.2-7.8,10.4-15.2,6.2c-4.2,4.1-6.3,9.7-12.7,10.7c-1.2,0.2-2.8,2.5-2.9,3.8c-0.1,3.2,0.6,6.5,1.1,9.7c0.1,0.5,0.6,1.4,1,1.4
		c2.9,0.2,6,0.9,8.7,0.2c9.8-2.8,19.4-6.1,29.2-9.1c5.9-1.8,12-3.3,17.3-4.8c-0.1-2.2-0.2-3.9-0.3-5.7c0.5-0.3,0.9-0.5,1.4-0.8
		c1.2,1.3,2.2,3.1,3.6,3.7c5.2,2.2,10,5.1,15,7.7c5.7,2.9,12.7,3.3,19.1,4.8c1.6,0.4,3,1.4,4.6,1.8c4.8,1.1,10,3.4,14.4,2.5
		c3.5-0.7,6.1,0.1,8.1,0.6c2.7-3.3,4.7-6.2,7.1-8.6c3.8-3.9,3.8-7.2-0.5-10.6c-1.3-1.1-4.5-0.9-2.9-4.1c-1.8-0.3-3.7-0.4-5.4-1.1
		c-0.8-0.3-1.2-1.7-1.7-2.5c-0.7-1-1.2-2.6-2.1-3c-6.1-2.6-12.3-5.2-18.6-7.2c-7-2.2-8.6-4.4-6.9-11.5
		C311.8,244.3,308.9,237.9,303,235.7z M273.4,536.2c4.7-0.1,4.2,2.6,4.2,5.2c0.1,6.9,0.2,13.8,0.5,20.7c0.2,3.2,1.8,5.7,5.3,6
		c3.2,0.3,6.7,0.5,8.1-2.9c2.2,1,4.4,2.9,6.6,2.9c2.2,0.1,4.4-1.7,6.9-2.7c3.2,5.6,8.2,1.7,12.5,2c6.6,0.3,3.9-7.9,8.2-10
		c3.4,3.9,2.4,12.8,12.1,9.5c-1.6-3.5-2.9-7-4.8-10.2c-3.3-5.5-3.8-10.7-0.2-16.4c1.7-2.7,2.7-6,4-9c-9-4-8.1,4.9-11.7,8.5
		c-1.4-3-2.2-5.7-3.8-7.8c-2.1-2.9-4.9-1.9-7.8-0.6c1.4,3,2.3,5.9,3.9,8.3c4.2,6.1,3.6,11.9,0,18c-1.5,2.5-2.8,3.7-5.8,2.3
		c0-6.7,0.1-13.4,0-20.1c-0.2-8.4-6.2-12.6-14.1-9.9c-1.9,0.7-3.7,2-4.6,2.5c-2.8-1.3-5-2.3-7.4-3.4c-0.2-2.3-0.5-4.9-0.9-8.8
		C280.7,525.8,277.5,530.3,273.4,536.2z M210.6,533.9c-3.1-3.9-6.5-5.5-10.4-3.7c-2.1,1-3.4,0.6-5.4,0.1c-4.3-1.1-5.6,0.2-5.7,4.6
		c-0.1,3.6,0,7.1,0,10.7c0,7.1,0,14.1,0,21.2c3,0,5.1,0,7.6,0c0-2.6,0-4.7,0-6.8c0-6.1,0-12.2,0-18.2c0-3.1,1.3-5.6,4.6-5.6
		c3.2,0,2.8,3.1,2.9,5.3c0.1,6.5,0,13,0,19.5c0,6.9,0.1,7,7.6,5.4c0-7.2,0-14.5,0-21.8c0-1.7-0.4-3.7,0.3-4.9
		c0.9-1.5,2.9-2.4,4.5-3.6c0.8,1.3,2.3,2.5,2.4,3.8c0.4,3.9,0.3,7.9,0.3,11.9c0,5,0,9.9,0,14.8c7.3,1,7.4,1,7.4-5
		c0-7.1,0.1-14.2,0-21.4c-0.1-4.1-1.2-8.2-5.2-10.1C217.4,528.3,213.8,530,210.6,533.9z M387.2,550.7c3.5,0,6.7,0.3,9.7-0.1
		c1.2-0.2,3.1-1.9,3-2.8c-0.4-4.4-0.7-8.9-2.1-12.9c-2.4-6.5-9.2-7.6-14.2-2.7c-0.9,0.8-1.5,1.9-2.2,2.7c-1-1.8-1.5-4.2-2.8-4.8
		c-3.7-1.5-5.6,1.4-8,5.7c0.6-5-1.4-5.6-4.3-5.5c-3.6,0.2-3.1,2.8-3.1,5c0,8.8-0.1,17.6,0,26.5c0,6.3,0.5,6.5,7.5,4.7
		c0-4.7-0.3-9.5,0.1-14.3c0.3-3.9,1.2-7.8,2.5-11.6c1.1-3.3,3.6-4.3,6-2.9c0.4,7.2,0.2,13.7,1.2,20.1c0.5,3,2.6,6.2,4.8,8.5
		c2.8,3,8.2,2.8,11.8,0.6c3.3-2,2.1-4.7,1.9-7.7C390.2,563.2,387.1,561,387.2,550.7z M363.3,187.7c-1.7-3.9-3.1-7.2-4.6-10.4
		c-0.3-0.7-1-1.3-1.6-1.9c-6-5.9-12-11.8-17.7-17.5c-2.1,0.6-3.8,1.5-5.6,1.7c-8.1,0.6-16.3,1.5-24.4,1.1
		c-6.4-0.3-10.3,2.9-13.5,7.3c-1.2,1.6-0.9,4.4-1.2,6.5c1.5,0.5,1.9,0.7,2.3,0.7c7.9-1.2,15.8-2.5,23.7-3.6c1.6-0.2,3.5-0.2,4.9,0.4
		c4.6,2.3,10.8,0.6,14.3,5.6c7.9-1.2,10.4,6.1,15.1,9.9C358.8,190.3,359.2,190.6,363.3,187.7z M314.2,194.7c1,2.2,1.4,4.5,2.7,5.9
		c1.3,1.4,3.8,3,5.3,2.6c3.5-0.9,1.2,3.3,3.3,3.1c2.1-0.1,4.4,0.4,6.2-0.4c4.8-2.1,9.4-1.1,14.1-0.3c2.9,0.5,6.1,0.9,8.6-1.7
		c-15.7-16.4-16.2-16.7-22.5-15.4c0.5,0.6,1,1.2,2.4,2.7c-11.7-3.5-20.9,0.6-30.5,3.7c2.5-2.3,5.1-4.6,8.5-7.6
		c-4.9,1.6-8.6,2.7-12.3,3.9c-1,1.4-2.4,3.2-3.7,5c-1-3.6-0.9-3.5,1.9-8.2c0.7-1.1,0-3,0-4.5c-0.9,0.1-2.2-0.2-2.8,0.3
		c-2.1,1.8-4,3.9-6,5.9c-3.8,4-4.3,11.1-0.9,15c1,1.2,2.7,1.8,4.1,2.7c1.5-2.7,2.7-0.8,4.3,0.1c1.1,0.6,2.6,0.5,3.9,0.7
		c-0.4-1.4-0.9-2.9-1.5-4.8c3,0,5.8,0,8.8,0C306.8,199.4,307.6,198.2,314.2,194.7z M465.7,438.5c3-1.3,5.4-2.7,8-3.3
		c2.7-0.5,5.6,0,8.4-0.3c6.2-0.6,9.9-7.3,6.6-12.5c-2.1-3.2-5.2-6-8.5-8.1c-9.6-6-20.4-6.4-32-5.2
		C452.2,420.1,459.9,428.2,465.7,438.5z M181.7,446.5c0,3,0.3,5.4-0.1,7.6c-0.8,4.1-1.4,8.5-3.2,12.1c-2.6,5-2.2,9.9-1,14.9
		c0.7,3,1.3,6.1,2.2,9c0.1,0.5,1.4,0.6,2.1,0.9c-0.8,0.5-1.5,1-2.3,1.3c-2.7,1.3-4.3,5.6-2,8.1c2.1,2.3,1.2,3.6-0.3,4.4
		c-2.8,1.5-5.8,3-8.8,3.4c-3.2,0.5-4.9,1.7-5.6,6c7.3,0.3,14.1,2.3,21.3,1.1c5.5-0.9,6.4,0.3,6.7-7.2c-3-0.5-6-1-9.1-1.5
		c0.2-5.1,5.8-8.5,3.1-13.6c2.8-3.6,5.6-7.2,8.6-11c-10.8-9.8-10-22.8-7.9-36.1C183.2,446.3,181.8,446.4,181.7,446.5z M455.8,567.4
		c3.3-0.3,7.1,1.7,7.2-2.6c0.2-9.4,0.1-18.9-0.7-28.3c-0.5-5.8-5.1-7.9-10.7-6.6c-1.6,0.4-3.4,0.3-5.1,0.3c-1.8,0.1-3.5,0-5.3,0
		c0,12.8,0,24.7,0,36.5c6.7,0.8,6.8,0.8,6.8-5.3c0.1-6.1,0-12.2,0-18.3c0-3.3,0.3-7.1,4.4-7c4.2,0.1,3.1,4.2,3.2,7
		C455.9,551,455.8,558.8,455.8,567.4z M187.5,549.2c-1.2-4.8-2-9.5-3.5-13.9c-1.4-4.1-4.8-6.1-9.3-6c-4.3,0.1-7.2,2.3-8.8,6
		c-3.9,9-4.1,18.2,0.2,27.2c1.8,3.7,4.7,5.8,8.9,5.8c4.2,0,7.4-2.1,8.9-5.8C185.5,558.3,186.3,553.8,187.5,549.2z M126.1,566.8
		c0-7.7-0.1-15,0-22.4c0-1.8,0.1-3.9,1-5.4c0.8-1.3,2.8-1.9,4.3-2.9c0.8,1.3,2.1,2.6,2.3,4c0.4,4,0.2,8,0.3,11.9c0,5,0,9.9,0,15.4
		c3-0.2,4.9-0.3,7.1-0.4c0-9.8,0.3-19-0.1-28.2c-0.3-7.4-5.2-11.1-11.1-8.6c-2.3,0.9-3.7,1.3-5.9,0.2c-1-0.5-2.7,0.2-4.6,0.4
		c0,10.8-0.1,21.2,0,31.7C119.4,567.5,119.5,567.5,126.1,566.8z M250.2,550.3c-1.3-5.9-1.7-11.4-3.6-16.3
		c-2.6-6.4-10.9-6.6-14.7-0.7c-1.1,1.7-2.2,3.8-2.3,5.8c-0.3,6-0.9,12.2,0,18.1c0.6,3.5,3.3,7.1,6,9.8c2.5,2.5,8.7,2.1,11-0.6
		c1.5-1.7,1.6-4.5,2.1-6.2c-3.8,0.1-7.2,1.2-9.5,0.1c-3.1-1.5-3.4-5.3-2.9-9.1C240.7,550.9,244.8,550.6,250.2,550.3z M162.9,537
		c0.6-6.8-1.2-8.8-7-7.7c-2.5,0.5-5.3,1.8-7,3.6c-7.2,7.5-7.4,23.9-0.2,31.3c2.1,2.2,5.7,3.7,8.7,3.9c5.7,0.4,6.8-1.7,5.5-7.7
		c-7.3,1.8-10.5-0.3-11.5-7.9c-0.3-2.5-0.3-5,0-7.5C152.1,537.5,155.2,535.3,162.9,537z M243.8,180.6c-0.8-2.2-1.3-3.8-2-5.2
		c-2.1-4.3-5-6-9.4-4.6c-2.4,0.8-4.1,3.5-6.4,4.6c-2.2,1.1-4.9,1.1-7.2,2.1c-1,0.4-2,2.8-2.2,2.7c-5.2-2.7-5.9,2.8-8.5,4.7
		c-0.8,0.6-0.8,2.4-1.2,3.6c1.5,0.1,3.2,0.7,4.4,0.3c4.5-1.6,8.7-4.2,13.3-5.4C230.7,181.9,236.9,181.6,243.8,180.6z M209.7,457.2
		c-10.6,3.2-12.3,18.1-3.7,33.1c2.3-0.4,4.6-0.8,7.3-1.3C212.2,478.3,211,468,209.7,457.2z M215.2,207.9c7.9,2.4,9-6.6,14.9-7
		c0.4,0.7,0.8,1.2,1,1.7c2.1,4.9,4.5,6.8,8.8,6.5c4-0.3,7-2,8.6-6.2c0.9-2.5,2.9-4.6,4.5-7c-3.1-3-6.6-4.3-12.2-3.5
		c2.8,1.1,4.4,1.8,6,2.5C234.7,195.7,223.5,197.5,215.2,207.9z M108,530.6c0,11.1,0,21.7,0,32.3c0,2.4,0,4.6,3.5,4.6
		c3.5,0,3.5-2,3.5-4.5c0-9.6,0-19.3,0-28.9c0-1.2-0.4-2.3-0.7-3.9C112.2,530.4,110.4,530.5,108,530.6z M192.2,242.3
		c-0.6,0.1-1.2,0.2-1.8,0.3c0,3.3,0.2,6.6,0,9.8c-0.5,6.2,1.2,12,3.4,17.5c1.5,3.8,4.4,6.7,9.8,8
		C200.8,265.1,199.4,252.8,192.2,242.3z M213.4,435.9c3.3,2.5,6.2,4.8,9.4,7.2c1.4-1.6,2.6-3,3.8-4.5c0.3-0.4,0.3-1.1,0.5-1.7
		C218.6,430.8,217.7,430.7,213.4,435.9z M121.1,485c1.3,0.8,2.8,1.7,4.1,2.5c1.2-3.1,2.4-5.8,3.1-8.6c0.7-2.6,0.9-5.4,1.3-8.3
		C124.5,472.1,123.8,473.4,121.1,485z M425,235.6c0.3,0,0.7,0.1,1,0.1c0.7-5.5,1.4-11,2-16.5c0.4-4.1-1.7-5-5.5-4.1
		C423.3,222.1,424.2,228.9,425,235.6z M114.1,508.7c0-5.7,0-10.3,0-15.3C105.6,498.3,105.4,503.2,114.1,508.7z M475.1,452.2
		c1.8,5.6,4.8,5.9,8.3,4.2c2.3-1.1,7.1-0.2,4.8-6.1C484,450.9,479.8,451.5,475.1,452.2z M161.5,447.7c-2.3,0.8-4.1,0.9-4.9,1.8
		c-2.9,3.3-5.1,11.9-3.7,16.6C155.8,459.8,158.3,454.6,161.5,447.7z M112.1,520.4c1.7-2.6,3.6-4.4,3.3-5.7c-0.3-1.5-2.7-3.5-4.1-3.4
		c-1.3,0.1-3.4,2.5-3.5,3.9C107.8,516.6,110,518,112.1,520.4z M183.6,414.6c6.7-2.5,11.5-5,13.2-11.2
		C192.6,406.7,186.2,407.2,183.6,414.6z M489.4,478.4c-2.2-3.1-3.5-5.5-5.4-7.2c-1-0.9-3.1-0.7-4.7-0.9c0.2,1.4,0,3.2,0.7,4.2
		C481.9,477.4,484.7,478.8,489.4,478.4z M420.9,244.1c-3,2.1-5.5,3.6-7.7,5.3c-0.5,0.4-0.9,2.2-0.5,2.5c0.7,0.7,2.3,1.3,2.9,1
		C418.6,251.4,420.8,249.1,420.9,244.1z M204.7,411.5c-0.4-0.3-0.9-0.6-1.3-0.9c-5.4,2.8-7.3,7.9-8,13.8
		C198.5,420.1,201.6,415.8,204.7,411.5z"/>
	<path d="M385.4,475.5c0.9,0.8,1.8,1.7,2.7,2.5c-3.8,8.4-4,18.1-10.2,25.3l0.1-0.1c-2.1,3-4.3,5.9-6.4,8.9l0.2,0.1
		c-0.2-1.9-1-3.9-0.5-5.5c0.6-1.9,2.4-3.4,3.1-4.4c0-4.2,0-7.8,0-11.4c1.2,2.4,2.4,4.8,3.6,7.2c0.3,0,0.7,0.1,1,0.1
		c0.1-2,0.7-4.2,0.1-6.1c-0.7-2.3-3.6-4.6-3.3-6.5c0.5-3.1-1.5-3.3-2.9-4.7c-1.5-1.5-2.3-3.7-3.4-5.7c0.6-0.7,1.2-1.6,2.2-3
		c-1.4-0.3-2.4-0.5-3.3-0.8c-0.8-0.2-1.5-0.6-2.3-0.9c0.6-0.6,1.1-1.4,1.8-1.7c3.7-1.4,4.4-5,1.3-7.7c-0.5-0.4-1.6-0.5-2.2-0.3
		c-3.6,1.6-5.5,0.7-5.4-2.9c0.1-2.3,1.9-5.1-2.3-5.7c-0.4-0.1-0.8-2.8-0.5-4.1c1.2-5.5,2.5-11,4.1-16.4c2.1-7,4.7-13.8,7.2-21.4
		c3.5,1.9,7.3,3.9,11.5,6.1c-0.3-1.3-0.4-2.7-1.1-3.8c-2.1-3.7-4.4-7.2-6.7-10.8c-0.2-0.3-0.3-0.9-0.2-1.2
		c3.3-6.2-0.4-13.8,4.8-19.9c3.6-4.3,1.5-7.1-3.7-9.6c-2.2-1.1-3.1-0.3-4,0.6c-1,0.9-1.3,2.5-1.9,3.8c-3,6.9-2.9,6.9-9.8,6.8
		c1.8,0.9,3.5,1.7,5.3,2.6c-0.1,0.3-0.3,0.7-0.4,1c-2.8,0.3-5.6,0.7-9.2,1.1c0.7-2.1,1.2-4,1.9-5.8c0.6-1.7,1.3-3.4,1.5-5.3
		c-4.5,4.2-6.1,9.9-8,16.3c2-0.3,3.4-0.5,4.8-0.7c0.1,0.4,0.2,0.7,0.3,1.1c-3.3,1.3-6.7,2.5-11.6,4.4c1.3-3.1,2-4.8,2.8-6.6
		c2-4.2,4.2-8.2,5.9-12.5c1.4-3.7-0.6-6.1-6.1-8.2l0.2,0.2c-0.7-1.2-1.4-2.4-2.1-3.6c-1.3,1-2.5,2-4.1,3.2c-1.7-2.4-4-4.6-8.1-2.2
		c1.1,1.4,2.2,2.7,3.4,4.3c-3.1,1.4-5.9,2.7-8.9,4.1c0.6,3.3-0.3,6.2-2.4,9.8c-2.4,4-7.2,1.9-9.7,5.5c0-3.9,0.3-7.9-0.1-11.7
		c-0.4-3.8-1.2-7.7-4.5-10.2c-1.1-0.9-2.5-1.5-3.7-2.2c0.3-0.5,0.7-1.1,1-1.6c1-0.1,2.1-0.1,3.1-0.2c2.5-5.3-2.8-6.8-5.1-9.8
		c-0.1-0.2-2.9,1.7-5,2.9c-1.8-1.1-4.2-3.6-7.7-0.4c0.4-1.4,0.9-2.8,1.5-4.9c-9.3-0.9-18.2-1.8-27-2.7c-0.1-0.4-0.1-0.8-0.2-1.2
		c2.4-0.4,5.2-0.2,7.2-1.4c5.3-3.2,10.8-1.5,16.3-1.9c5.8-0.4,11.5-2,17.2-3.2c1.1-0.2,2.7-1,3-1.9c2.4-6.1,7.4-8.2,13.3-9
		c0.5-0.1,1-0.7,1.7-1.3c-1.1-0.4-1.8-0.7-2.4-0.9c0-0.2-0.1-0.5-0.1-0.6c4.1-2.6,4.9-9.5,10.7-9.5c3,0,4.2,0.2,2.9-2.9
		c-1.2-2.7,0.7-2.8,2.3-3.1c2.7-0.5,5.4-0.8,8.3-1.2c0-0.1,0.1,0.7,0,1.5c-0.6,3.6,1.4,5.7,3.9,3.8c2.6-1.9,7-0.9,8.1-5.9
		c0.5-2.2,5.3-3.5,8.3-5.3c0,2,0,4.5,0,7c2-5.4,7.3-9.6,5.7-16.2c0.5,0.9,0.9,1.9,1.9,4c1.3-2.9,2.3-5.1,3.4-7.6
		c5.2-0.5,5.1-0.5,5.5-5.9c0.3-3.3-1-7.2,3-9.5c0.3-0.2,0.2-2-0.3-2.7c-1-1.6-2.1-3.3-3.5-4.3c-5.3-3.8-5.9-8.8-4.6-14.7
		c5.1-24.2,7.7-48.5,2.7-73c-1.3-6.5-3.2-13.1-5.9-19.2c-3.5-8.1-4.5-16.2-2.1-24.6c0.6-2,1.5-3.8,2.3-5.7c0.2-0.6,1.1-1.3,1-1.4
		c-4-4.9,1.3-11.5-3.1-16.4c-1.6-1.8-2.3-4.2-5.3-4.6c-1.1-0.1-2.6-1-3-2c-2-4.1-5.2-3.7-9.1-4.3c-6.2-1.1-13.1,2.2-18.6-2.8
		c-10.3-0.8-19.7-5.9-29.9-7c-10.4-1.1-20.9-2-31.3-2.7c-1.8-0.1-3.6,1.1-5.9,1.9c-0.4-1-1.1-2.7-1.9-4.6c-3.3-0.4-4.9,5.2-8.9,3.2
		c-5.5,4.1-11.1-0.7-16.8,0c-2.5,0.3-5.5-2.4-8.1-4.1c-3.1-2.1-5.7-1.3-7.5,1.4c-4.5,6.6-8.9,13.1-12.9,20
		c-3.4,5.9-6.2,12.3-9.9,19.7c-0.6-2.6-0.9-3.7-1.3-5.5c-5.8,6.4-8,14-8,21.8c0.1,14.9,1.2,29.7,1.5,44.6c0.2,9.2-0.2,18.4-0.5,27.6
		c-0.1,2-0.9,3.9-1.7,6.9c-5.1-7.4-2.2-15.4-4.3-22.9c-4.6,2.8-5,6.5-4.9,9.8c0.2,6.7,1,13.4,1.5,20.1c0.3,3.5,0.4,7,0.6,10.5
		c-0.5,0.2-0.9,0.5-1.4,0.7c-1.1-1.5-2.6-2.9-3.3-4.5c-6.3-13.4-11.7-26.9-9.6-42.3c0.5-3.4,2-8.1-3.9-10c-1.7,2.9-3.3,5.7-4.9,8.5
		c-0.3-0.1-0.5-0.2-0.8-0.3c1.3-4.4,2.9-8.7,3.9-13.1c1-4.3,1.4-8.7,2.2-13.1c0.5-2.9,1.1-5.8,1.9-8.6c1.4-4.4,2.3-9.2,4.7-12.9
		c2.8-4.3-1.5-8,0.3-11.9c0.2-0.4-0.5-1.2-0.3-1.6c3.2-6.3,6.5-12.6,9.8-18.9c1-2,1.6-4.3,2.8-6.2c2.3-3.9,4.5-7.9,7.5-11.3
		c2.5-2.8,4-5.2,3.4-9.2c-0.9-6.6-1.5-13.3-1.6-20c0-1.5,1.9-3.5,3.4-4.6c3.6-2.8,8-4.9,7.9-10.5c0-0.5,0.5-1.2,1-1.5
		c6.2-3.5,10.6-10.1,18.7-10.5c4.1-0.2,8.5-0.6,10.2-5.7c0.1-0.2,0.4-0.4,0.4-0.4c4.7,3.9,8.9-4.1,13.8-0.7c1.3,0.9,3.6,0.3,5.4,0.5
		c6.6,0.6,11.4-2.9,15.9-7.2c0.4-0.4,1-0.7,1.5-0.8c3.8-0.3,7.8-1.4,11.3-0.5c7,1.8,13-3.3,19.8-1.8c6.7,1.5,13.6,2.5,20.2,4.4
		c6.9,1.9,13.6,4.3,20.3,6.7c1,0.4,2.1,1.8,2.2,2.8c0.6,4,2.9,6.6,6.3,7.7c9,2.9,15.1,8.5,19.2,17.1c1.7,3.7,4.9,6.7,7.5,10
		c0.7,0.9,2.1,2,2,2.8c-0.5,3.5,1.6,4.9,4,6.3c0.9,0.5,1.6,1.3,2.3,2c3.8,4.6,7.6,9.3,11.5,13.9c1.2,1.4,3,2.2,1.7,4.7
		c-0.3,0.6,1.2,2.4,2.1,3.5c2.6,3.3,5.6,6.3,8,9.7c1.6,2.3,3.4,5.2,3.5,7.9c0.5,11.1,6.7,19.5,11.8,28.6c1.1,1.9,5.6,3.7,1,6.8
		c-0.5,0.3,0.8,3,1.1,4.7c2.3,10.2,4.8,20.4,6.9,30.6c0.9,4.5,0.9,9-2.4,13c-1.4,1.7-1.6,4.5-2.2,6.7c-3.2-5.6-6-10.5-8.9-15.4
		l-0.3-0.5c-1.8-1.6-3.5-3.7-5.6-4.6c-1.4-0.6-4.3-0.3-5.1,0.7c-3.9,5-7.4,10.4-11,15.6c0.5,0.3,0.9,0.6,1.4,1
		c1.5-2.1,3-4.3,4.6-6.6c2.8,2.3,4.8,4.1,3.7,8.1c-0.6,2.1,1.1,4.8,1.7,7.2c1.2,5.3,2.9,10.5,3.2,15.9c0.4,7-2.1,9.1-9.5,9.8
		c-0.9,1.8-1.9,3.8-3.1,6.1c2,1.8,4.1,3.5,5.8,5.5c2.3,2.9,1.7,4.9-1.4,7.1c-2,1.4-3.7,3.1-5.1,4.2c5,4.3,9.6,8.2,14,12.3
		c0.3,0.2-0.7,1.8-1.1,2.9c1.3,0.6,2.8,1.3,4.8,2.2c-2,0.7-3.7,1.3-5.4,1.9c-1.5,3.2,13.4,15.9,20.8,17.8c0.5,4.3,0.6,8.7,4.2,11.9
		c-4,2.5-4,2.5-16.9,0.4c-0.8,2.7,0.1,3.9,2.9,4.9c3.8,1.3,8.1,2.1,10.5,5.9c0.7,1.1,1.1,2.4,2.1,4.6c-4.3-2.9-6-3.2-16.8-3.1
		c5.7,4.5,10.7,8.5,16.5,13.1c-4.6,0.9-1.7,7.2-7.5,6.6c-0.2-1.2-0.5-2.6-0.8-4.1c-0.3,0-0.6,0-0.9,0c0,4.5,0,9,0,13.5
		c-0.5,0.1-1,0.2-1.4,0.3c-2-8.3-0.1-18.8-11.7-22c0.3,3.3,0.7,6.5,1,10c-0.4-0.1-1.5-0.2-3-0.4c1,2.1,1.9,3.9,2.2,4.4
		c-1.8,5.2-3.3,9.5-4.7,13.7c2,5.7,7.6,6.4,11.6,9.1c12.8,8.7,25.7,17.4,38.5,26.2c2.2,1.5,4.3,3.1,6.5,4.6
		c-0.2,0.4-0.3,0.8-0.5,1.2c-2.2-0.5-4.3-0.9-6.5-1.4c-3.8-0.9-7.2-1.6-11.5-0.1c-2.7,0.9-7.5-2.2-10.4-4.7
		c-2.8-2.4-4.6-6.2-6.6-9.5c-1.4-2.3-2.7-4.3-6.2-3c1.6,3.4,3.6,6.8,4.9,10.4c1.7,4.6,1.3,4.9-3.6,5.8c-1,0.2-2,0.8-2.7,1.5
		c-1.6,1.6-3.1,3.4-5.4,5.9c5.9-0.2,10.1-2.8,15.7-4.4c2.1,3.7,4.8,7.8,7,12.3c2.7,5.5,6.4,11,6.9,16.7c0.7,8.1,6.4,11.1,11.2,15.5
		c4,3.6,7.7,7.5,11.4,11c-2.5,3.2-4.3,5.7-6,7.9c-8.7-3.3-17.6-6.1-26.1-10.1c-9.5-4.5-9-5.9-3.4-14c1.2-1.7,2.7-3.3,4.4-4.4
		c3.3-2,3.1-4.6,1.7-7.5c-3.2-7.2-8.3-8.8-16.2-4.7c0.9-3,1.7-5.8,2.6-8.7c-0.5-0.3-1-0.7-1.5-1c-2,2.3-4.1,4.6-6.1,7
		c-0.9,1.1-1.5,2.6-2.6,3.3c-1.8,1.1-2.4,2.2-2.5,4.4c-0.2,2.6-1.1,5.4-2.5,7.6c-0.9,1.5-3.2,2.2-5,3.1c-0.6,0.3-2,0.1-2.1,0.4
		c-0.7,2.2-1.6,4.4-1.5,6.6c0.1,1.6,1.6,3.2,2.4,4.8c0.5,0,1-0.1,1.5-0.1c-3.4,9.4-6.9,18.8-10.2,28.2c-3.3,9.3-6.6,18.5-9.8,27.8
		c-6.6-1.7-6.6-2.6-3.7-8.3c4.6-9.2,8.4-18.8,8.3-29.4c0-2-0.7-3.9-1-5.3c-3.5,2-6.6,3.8-9.6,5.5c0.8-1.2,1.6-2.5,2.4-3.7
		c-7.7-0.2-7.7-0.2-4.2,11.6C384.2,480.5,384.8,478,385.4,475.5z M382.3,371c0.2-0.3,3.2-1.4,4.9-1.9c0.7-0.2,1.4-0.8,2-1.4
		c5.5-5.9,5.1-19.2-0.8-24.9c-2.1-2.1-3.7-2.3-5.6,0.2c-3.2,4.1-6.6,7.9-9.8,12c-2,2.5-3.9,5.2-5.1,6.9
		C373,365.1,377.5,367.9,382.3,371z M405.5,443.3c3.8-4,3.9-8.3,2.4-12.6c-0.5-1.2-2.3-2.4-3.7-2.6c-0.7-0.1-2.1,1.8-2.5,3.1
		C399.9,435.8,401,439.8,405.5,443.3z M390.9,330.6c-0.9,1.9-1.8,3.8-2.7,5.7c3.1,2.2,5.8,4.1,8.5,5.9c0.3,0.2,0.7,0.3,1.1,0.4
		C399.9,337.9,397,332.5,390.9,330.6z M404,425.4c5.3-4.9,6.6-13,2.8-18.5C405.8,413.4,405,418.9,404,425.4z M419.1,408.1
		c-5-0.7-4.8,3-5.7,5.9c-0.8,2.8-1.8,5.5-2.7,8.3c0.3,0.1,0.5,0.2,0.8,0.2C414,417.7,416.5,412.9,419.1,408.1z"/>
	<path d="M318.8,445.3c-7.1,10.1-12.2,20.5-7.4,33.3c0.2,0.7,0.3,1.7,0,2.2c-2,3.2-0.8,6.2,1,8.8c2.3,3.3,2.6,6.5,1.4,10.1
		c-1.6,5.2-3.4,10.3-5,15.6c-0.7,2.5-2.3,3.2-4.7,3.1c-18.5-0.1-36.9-0.1-55.4,0c-3.9,0-4.4-1.9-4.5-5c-0.8-25.1-1.6-50.3-2.4-75.4
		c-0.1-4,0-7.9,0-12.2c-1.9,0-3.3,0-4.8,0c0.1-0.9,0.1-1.4,0.2-2c0.3-1,1.1-2,0.9-2.9c-0.8-5.5-1.7-11-2.9-16.4
		c-0.5-2.6-0.7-4.4,1.8-6.4c4.2-3.4,5.5-7.8,2.4-13.1c-1.7-2.8-2.5-6.1-3.9-9.5c-4.6,5.1-3.9,14-14.1,14.7
		c7.7-12.3,18.3-22.7,13.7-39.3c-2.7,0.9-5.5,1.3-7.6,2.7c-4.5,3.1-9.2,5-14.8,4.4c-0.9-0.1-2.1-0.4-2.6-1c-2.1-2.8-4-5.8-2.8-10.3
		c2.6,1.7,4.7,3.1,7.8,5.1c0.4-4.9,0.5-9.2,3.6-12.7c-0.4-0.2-0.9-0.3-1.3-0.5c-1.3,0.9-2.6,1.8-5.2,3.6c1.2-3.6,2.1-5.9,2.6-8.2
		c1.7-6.9,0.2-10.1-6.4-12.9c2-0.6,3.4-1,5-1.4c-0.2-1.7-0.3-3.4-0.5-5.4c5.1,6.8,10,13.3,14.9,19.8c0.4,0.6,0.8,1.6,1.3,1.7
		c6,0.7,6.4,5.3,7.5,9.9c2,8.5,4.7,16.9,6.9,25.4c2.2,8.7,4.2,17.5,6.4,26.2c0.7,2.8,1.9,5.4,2.9,8.1c2.6,7.3,5.2,14.6,8,21.8
		c2.6,6.6,5.1,13.2,8.4,19.5c2.2,4.3,6,6.7,11.5,5.2c10.5-2.8,21.1-5.2,31.6-7.8c1.6-0.4,3.2-1,4.9-1.1c0.4,0,0.9,1.7,1.3,2.6
		C318.6,445.5,318.8,445.3,318.8,445.3z"/>
	<path d="M303,235.7c5.9,2.3,8.8,8.6,7.2,15.4c-1.7,7-0.1,9.2,6.9,11.5c6.3,2,12.5,4.7,18.6,7.2c1,0.4,1.4,2,2.1,3
		c0.6,0.9,1,2.2,1.7,2.5c1.7,0.7,3.6,0.8,5.4,1.1c-1.6,3.2,1.6,3.1,2.9,4.1c4.3,3.4,4.3,6.7,0.5,10.6c-2.4,2.4-4.4,5.3-7.1,8.6
		c-1.9-0.5-4.6-1.3-8.1-0.6c-4.4,0.9-9.6-1.4-14.4-2.5c-1.6-0.4-3-1.4-4.6-1.8c-6.4-1.6-13.4-1.9-19.1-4.8c-5-2.6-9.8-5.5-15-7.7
		c-1.5-0.6-2.4-2.5-3.6-3.7c-0.5,0.3-0.9,0.5-1.4,0.8c0.1,1.7,0.2,3.5,0.3,5.7c-5.3,1.5-11.3,3-17.3,4.8c-9.7,3-19.4,6.3-29.2,9.1
		c-2.7,0.8-5.8,0-8.7-0.2c-0.4,0-1-0.9-1-1.4c-0.5-3.2-1.2-6.5-1.1-9.7c0-1.4,1.7-3.6,2.9-3.8c6.4-0.9,8.5-6.6,12.7-10.7
		c7.3,4.1,10.5-3,15.2-6.2c2.3-1.6,4.2-4.2,5.5-6.7c2-3.8,6-3.7,8-2.3c4.2,2.9,8.8,1.7,13.1,2.8c3.5,0.9,6-2,5-5.7
		c-0.7-2.6,0.3-3.7,1.9-4.6c4.7-2.7,9.6-4.2,14.9-1.2c3.6,2.1,6,1.2,6.4-2.8C304.1,243.1,303.3,239.6,303,235.7z"/>
	<path d="M418.1,510.3c-0.5-1.7-0.7-3.4-1.5-5c-1-2.1-3.2-4-3.3-6c-0.3-5-0.9-10.5,0.8-14.9c1.9-5,2.5-10.7,6.4-14.8
		c2.3-2.4,4.4-5,6-6.8c11.3,5.1,22.7,10.2,34.6,15.6c-2.9,4.2-5.5,8.1-9,13.2c5.7-4,10.3-7.1,14.7-10.4c2.4-1.8,4.6-1.8,6.8-0.1
		c4.6,3.6,9.3,7.1,13.6,11.1c3.6,3.4,2.4,14.3-1.2,17.9c1,1.9,2.8,3.6,2.8,5.3c0.2,16.6,0.1,33.1,0.1,49.7c0,0.6-0.3,1.2-0.5,1.9
		c-4.5,0.3-9,1.3-13.3,0.6c-2.6-0.4-5.6-3.1-6.8-5.6c-4.3-8.7-4-17.9-0.1-26.7c2.4-5.4,4.9-6.2,12.9-5.4c0-4.1,0-8.2,0-11.6
		c-7.7,0-15.4,0.1-23-0.1c-1.2,0-2.4-1.8-3.5-2.6c-1.5,0.8-3.2,2-5.1,2.6c-1,0.3-2.3-0.5-3.5-0.8c2.8-4.8-7.7-4.2-3.8-9.6
		c1.3-1.8,1.9-4.1,3.4-7.5c-8.6,6.2-15.2,13.6-25.7,11.9C419.1,511.6,418.6,510.9,418.1,510.3z M481.4,548.1
		C481.4,548.1,481.4,548.1,481.4,548.1c0-2.5,0.3-5.1-0.1-7.5c-0.3-1.6-1.7-2.9-2.6-4.4c-1.4,0.9-3.6,1.6-4.1,2.9
		c-2.5,5.9-2.5,12.2-0.5,18.3c0.4,1.3,2.9,2.8,4.1,2.6c1.2-0.2,2.8-2.3,3.1-3.8C481.7,553.6,481.4,550.8,481.4,548.1z"/>
	<path d="M333,434.4c16.7,14.5,29.3,32.2,39.5,51.6c0.4,0.7,0.4,1.6,0.6,2.4c-4,0-6.5,2.1-7.6,5.8c-1.6,5.3-3.1,10.7-4.5,16.1
		c-0.1,0.5,0.6,1.9,1.1,1.9c1.1,0.2,2.4,0,3.3-0.5c0.9-0.6,1.5-1.7,2.1-2.4c1.7,1.2,3,2.1,4.3,3l-0.2-0.1c1,1.8,2,3.6,2.9,5.4
		c0.5-0.1,0.9-0.3,1.4-0.4c0.7-4.6,1.4-9.2,2.1-13.8c0,0-0.1,0.1-0.1,0.1c0.7,0.2,2,0.4,2.1,0.7c0.8,4.4,1.5,8.9,2.3,13.9
		c-22,0-43.1,0-64.6,0c0.3-1.9,0.8-3.5,0.7-5.1c-0.4-4.7-1.9-9.6-1.4-14.2c0.6-5.2-0.1-9.5-3.3-13.5c2-3.7,3.9-7.3,5.8-11
		c0.2-0.5,0.2-1.3-0.1-1.8c-3.5-9-2.6-18.1-0.6-27.2l-0.2,0.2c3.9-4.6,7.2-10,13.6-11.9C332.4,433.9,332.7,434.2,333,434.4z
		 M356.4,479.2c-9.3,3.5-12.1,8-11.3,16.4c0.2,1.7-0.1,3.6-0.9,5.1c-3.4,6.3-3.3,7,2.6,11.1c0.5,0.3,1.1,0.3,1.9,0.6
		C351.2,501.5,353.7,490.7,356.4,479.2z"/>
	<path d="M273.4,536.2c4.1-5.9,7.3-10.4,11.2-16c0.4,3.9,0.6,6.5,0.9,8.8c2.4,1.1,4.6,2.1,7.4,3.4c0.9-0.5,2.6-1.8,4.6-2.5
		c7.9-2.7,13.9,1.5,14.1,9.9c0.1,6.7,0,13.4,0,20.1c3,1.4,4.4,0.2,5.8-2.3c3.6-6.1,4.2-11.9,0-18c-1.6-2.4-2.5-5.3-3.9-8.3
		c2.9-1.3,5.7-2.3,7.8,0.6c1.5,2.1,2.3,4.8,3.8,7.8c3.6-3.6,2.7-12.5,11.7-8.5c-1.3,3-2.3,6.3-4,9c-3.5,5.6-3.1,10.8,0.2,16.4
		c1.9,3.2,3.2,6.7,4.8,10.2c-9.7,3.3-8.8-5.6-12.1-9.5c-4.2,2.2-1.6,10.4-8.2,10c-4.2-0.2-9.3,3.7-12.5-2c-2.5,1.1-4.7,2.8-6.9,2.7
		c-2.2-0.1-4.4-1.9-6.6-2.9c-1.5,3.5-4.9,3.2-8.1,2.9c-3.5-0.3-5.2-2.9-5.3-6c-0.4-6.9-0.4-13.8-0.5-20.7
		C277.6,538.8,278.1,536,273.4,536.2z M291.8,541.4c-0.3-1.2-0.3-2.2-0.7-2.6c-0.9-0.8-2.2-1.9-3.2-1.8c-0.9,0.1-2.4,1.6-2.4,2.6
		c-0.3,6-0.3,12.1-0.1,18.2c0,1.1,1.8,2.2,2.7,3.3c0.9-0.9,2.5-1.9,2.5-2.8c0.1-5.1,3.4-7.9,7-10.5c1.5-1.1,3.2-2,4.7-3.1
		c2.4-1.8,3.3-5.9,1-7.5c-1.4-1-4.2-0.5-6.1,0.1C295.5,538.1,294,539.8,291.8,541.4z M304.8,550.7c-0.6-0.3-1.3-0.6-1.9-0.9
		c-1.6,2.2-3.6,4.2-4.6,6.6c-0.5,1.2,0.9,3.2,1.4,4.8c1.4-0.9,3.7-1.4,4.1-2.7C304.6,556,304.5,553.3,304.8,550.7z"/>
	<path d="M418.1,510.3c0.5,0.6,1,1.2,1.6,1.8c-0.9,1.5-1.5,3.9-2.7,4.3c-6.9,2.1-6.3,7.4-6,13.3c3.4,0.3,6.8,0.6,11,1
		c0,7.1,0,13.9,0,20.8c0,1.5,0,2.9,0,4.4c0.1,2.3-0.1,5.2,3.1,5.1c2.9-0.1,4.3-2.4,4.3-5.2c0.1-4.8,0-9.6,0-14.5c0-3.3,0-6.7,0-9.9
		c6.6-1.8,7.2-1.5,7.2,4.2c0.1,9,0,18,0,27.1c0,1.4-0.3,2.9-0.5,4.4c-1,0.2-1.8,0.5-2.6,0.5c-3.1,0-6.1-1.2-9.5,0.2
		c-3.5,1.4-7.2-1-8.3-4.8c-0.9-3.1-1.2-6.6-1.3-9.9c-0.2-5.2-0.1-10.4-0.1-15.7c-2.9-1.1-3.6,0.1-3.6,2.5c0,6.7,0,13.4,0,20.1
		c0,2.3,0,4.5,0,7.1c-2.6,0-4.5,0-7.2,0c0-7.4,0.1-14.5,0-21.6c-0.1-3.4,1-7.1-2.3-9.9c-0.7-0.6-0.7-3.5-0.1-4
		c3.1-2.4,2.2-5.6,2.5-8.6c0.6-7.2,3.6-10.3,10.8-11.8C415.6,510.8,416.9,510.6,418.1,510.3z"/>
	<path d="M210.6,533.9c3.2-3.9,6.8-5.6,10.9-3.6c4,1.9,5.1,5.9,5.2,10.1c0.1,7.1,0.1,14.2,0,21.4c0,6-0.1,6-7.4,5
		c0-4.8,0-9.8,0-14.8c0-4,0.1-8-0.3-11.9c-0.1-1.3-1.6-2.6-2.4-3.8c-1.5,1.2-3.5,2.1-4.5,3.6c-0.8,1.2-0.3,3.3-0.3,4.9
		c0,7.3,0,14.6,0,21.8c-7.5,1.6-7.5,1.6-7.6-5.4c0-6.5,0-13,0-19.5c0-2.2,0.3-5.3-2.9-5.3c-3.3,0-4.6,2.6-4.6,5.6
		c-0.1,6.1,0,12.2,0,18.2c0,2.1,0,4.2,0,6.8c-2.5,0-4.6,0-7.6,0c0-7.1,0-14.2,0-21.2c0-3.6-0.1-7.1,0-10.7c0.1-4.5,1.4-5.7,5.7-4.6
		c2,0.5,3.4,0.8,5.4-0.1C204.1,528.4,207.5,530,210.6,533.9z"/>
	<path d="M387.2,550.7c-0.2,10.3,3,12.4,11.8,8.4c0.2,2.9,1.3,5.7-1.9,7.7c-3.6,2.2-8.9,2.4-11.8-0.6c-2.2-2.3-4.3-5.5-4.8-8.5
		c-1-6.3-0.9-12.8-1.2-20.1c-2.3-1.4-4.9-0.4-6,2.9c-1.2,3.7-2.1,7.7-2.5,11.6c-0.4,4.8-0.1,9.6-0.1,14.3c-7,1.8-7.4,1.6-7.5-4.7
		c-0.1-8.8,0-17.6,0-26.5c0-2.2-0.5-4.8,3.1-5c2.9-0.2,4.9,0.4,4.3,5.5c2.4-4.3,4.3-7.2,8-5.7c1.3,0.5,1.8,3,2.8,4.8
		c0.6-0.8,1.3-1.8,2.2-2.7c5-4.8,11.9-3.8,14.2,2.7c1.5,4.1,1.8,8.6,2.1,12.9c0.1,0.9-1.9,2.7-3,2.8
		C393.9,551,390.8,550.7,387.2,550.7z M393.7,544.6c-1.2-3.6-2.2-6.3-3.3-9.5c-3.7,4.4-4.5,7.7-2.7,9.5
		C389.2,544.6,390.8,544.6,393.7,544.6z"/>
	<path d="M363.3,187.7c-4.1,3-4.6,2.6-8.3-0.3c-4.7-3.7-7.2-11-15.1-9.9c-3.5-5-9.7-3.3-14.3-5.6c-1.4-0.7-3.3-0.7-4.9-0.4
		c-7.9,1.1-15.8,2.4-23.7,3.6c-0.4,0.1-0.8-0.2-2.3-0.7c0.3-2.1,0-4.8,1.2-6.5c3.2-4.4,7.1-7.6,13.5-7.3c8.1,0.3,16.3-0.6,24.4-1.1
		c1.8-0.1,3.5-1,5.6-1.7c5.7,5.6,11.7,11.6,17.7,17.5c0.6,0.6,1.2,1.2,1.6,1.9C360.2,180.5,361.6,183.8,363.3,187.7z"/>
	<path d="M314.2,194.7c-6.6,3.5-7.4,4.6-6.1,8.9c-3,0-5.8,0-8.8,0c0.6,1.9,1,3.4,1.5,4.8c-1.3-0.2-2.8,0-3.9-0.7
		c-1.6-0.9-2.8-2.8-4.3-0.1c-1.4-0.9-3-1.5-4.1-2.7c-3.4-3.9-2.9-11,0.9-15c1.9-2,3.9-4.1,6-5.9c0.6-0.5,1.8-0.2,2.8-0.3
		c0,1.5,0.7,3.4,0,4.5c-2.8,4.7-2.9,4.6-1.9,8.2c1.3-1.8,2.7-3.6,3.7-5c3.6-1.1,7.3-2.3,12.3-3.9c-3.4,3-5.9,5.3-8.5,7.6
		c9.6-3.1,18.8-7.2,30.5-3.7c-1.4-1.6-1.9-2.2-2.4-2.7c6.3-1.3,6.8-1,22.5,15.4c-2.5,2.6-5.7,2.2-8.6,1.7c-4.8-0.9-9.3-1.8-14.1,0.3
		c-1.8,0.8-4.1,0.3-6.2,0.4c-2.1,0.1,0.2-4-3.3-3.1c-1.5,0.4-4-1.2-5.3-2.6C315.6,199.2,315.2,197,314.2,194.7z"/>
	<path d="M465.7,438.5c-5.8-10.2-13.5-18.4-17.6-29.3c11.6-1.2,22.4-0.8,32,5.2c3.3,2,6.4,4.9,8.5,8.1c3.4,5.2-0.4,12-6.6,12.5
		c-2.8,0.2-5.7-0.3-8.4,0.3C471.1,435.7,468.7,437.2,465.7,438.5z"/>
	<path d="M181.7,446.5c0.1,0,1.5-0.2,3.6-0.4c-2.1,13.3-2.8,26.2,7.9,36.1c-3,3.8-5.8,7.4-8.6,11c2.6,5.2-3,8.5-3.1,13.6
		c3.1,0.5,6.1,1,9.1,1.5c-0.3,7.5-1.3,6.3-6.7,7.2c-7.1,1.2-13.9-0.9-21.3-1.1c0.7-4.3,2.3-5.5,5.6-6c3.1-0.5,6.1-1.9,8.8-3.4
		c1.5-0.8,2.5-2.1,0.3-4.4c-2.3-2.5-0.7-6.8,2-8.1c0.8-0.4,1.6-0.9,2.3-1.3c-0.7-0.3-2-0.4-2.1-0.9c-0.9-3-1.5-6-2.2-9
		c-1.2-5.1-1.6-9.9,1-14.9c1.9-3.6,2.5-8,3.2-12.1C182.1,451.9,181.7,449.5,181.7,446.5z"/>
	<path d="M455.8,567.4c0-8.6,0.1-16.3,0-24.1c0-2.7,1-6.9-3.2-7c-4.1-0.1-4.4,3.7-4.4,7c0,6.1,0,12.2,0,18.3c-0.1,6-0.1,6-6.8,5.3
		c0-11.8,0-23.7,0-36.5c1.7,0,3.5,0,5.3,0c1.7,0,3.5,0.1,5.1-0.3c5.5-1.4,10.1,0.8,10.7,6.6c0.9,9.4,1,18.8,0.7,28.3
		C462.9,569.1,459.1,567,455.8,567.4z"/>
	<path d="M187.5,549.2c-1.2,4.6-2,9.1-3.7,13.3c-1.5,3.7-4.7,5.8-8.9,5.8c-4.2,0-7.1-2.1-8.9-5.8c-4.3-9-4-18.2-0.2-27.2
		c1.6-3.6,4.5-5.9,8.8-6c4.5-0.1,7.9,1.9,9.3,6C185.5,539.7,186.3,544.4,187.5,549.2z M179.7,548.7c-0.6-3.3-1-6.6-1.8-9.8
		c-0.3-1.1-1.9-2.6-2.9-2.6c-1,0-2.7,1.3-3.1,2.4c-2.1,6.5-2.1,13.2-0.1,19.7c0.3,1.1,2,2.5,3,2.5c1,0,2.8-1.3,3.1-2.4
		C178.8,555.4,179.2,552.1,179.7,548.7z"/>
	<path d="M126.1,566.8c-6.6,0.7-6.7,0.7-6.7-4.3c-0.1-10.5,0-20.9,0-31.7c1.9-0.2,3.6-0.9,4.6-0.4c2.2,1.1,3.6,0.8,5.9-0.2
		c6-2.5,10.8,1.3,11.1,8.6c0.4,9.2,0.1,18.4,0.1,28.2c-2.2,0.1-4.1,0.2-7.1,0.4c0-5.5,0-10.4,0-15.4c0-4,0.1-8-0.3-11.9
		c-0.1-1.4-1.5-2.7-2.3-4c-1.5,0.9-3.5,1.5-4.3,2.9c-0.9,1.4-1,3.6-1,5.4C126,551.8,126.1,559.1,126.1,566.8z"/>
	<path d="M250.2,550.3c-5.3,0.3-9.4,0.6-13.9,0.9c-0.6,3.8-0.2,7.6,2.9,9.1c2.3,1.1,5.7,0,9.5-0.1c-0.5,1.7-0.6,4.5-2.1,6.2
		c-2.3,2.7-8.5,3.1-11,0.6c-2.7-2.7-5.4-6.2-6-9.8c-0.9-5.9-0.3-12,0-18.1c0.1-2,1.2-4.1,2.3-5.8c3.8-5.9,12-5.7,14.7,0.7
		C248.5,538.8,248.9,544.3,250.2,550.3z M239.9,534.9c-4.3,3.4-4.3,6.4-3.7,10.1c2.1-0.2,3.9-0.4,6.3-0.6
		C241.6,541.1,240.9,538.5,239.9,534.9z"/>
	<path d="M162.9,537c-7.6-1.7-10.7,0.5-11.5,8.1c-0.3,2.5-0.3,5.1,0,7.5c1,7.5,4.2,9.6,11.5,7.9c1.4,6,0.2,8.1-5.5,7.7
		c-3-0.2-6.6-1.7-8.7-3.9c-7.2-7.4-6.9-23.8,0.2-31.3c1.7-1.8,4.5-3.2,7-3.6C161.7,528.1,163.4,530.2,162.9,537z"/>
	<path d="M243.8,180.6c-6.9,0.9-13.2,1.3-19.1,2.8c-4.6,1.1-8.8,3.7-13.3,5.4c-1.3,0.5-2.9-0.2-4.4-0.3c0.4-1.2,0.3-3,1.2-3.6
		c2.6-1.9,3.3-7.3,8.5-4.7c0.2,0.1,1.2-2.3,2.2-2.7c2.3-0.9,5-1,7.2-2.1c2.3-1.2,4-3.9,6.4-4.6c4.4-1.4,7.3,0.3,9.4,4.6
		C242.5,176.9,243,178.5,243.8,180.6z"/>
	<path d="M209.7,457.2c1.2,10.8,2.4,21.1,3.7,31.8c-2.7,0.5-5,0.9-7.3,1.3C197.4,475.4,199.1,460.4,209.7,457.2z"/>
	<path d="M215.2,207.9c8.3-10.4,19.6-12.3,31.6-13c-1.6-0.7-3.2-1.3-6-2.5c5.6-0.7,9.1,0.5,12.2,3.5c-1.6,2.4-3.6,4.5-4.5,7
		c-1.5,4.2-4.5,5.9-8.6,6.2c-4.3,0.3-6.6-1.6-8.8-6.5c-0.2-0.5-0.6-1-1-1.7C224.2,201.3,223.1,210.3,215.2,207.9z"/>
	<path d="M108,530.6c2.4-0.1,4.1-0.2,6.3-0.3c0.3,1.5,0.6,2.7,0.7,3.9c0,9.6,0,19.3,0,28.9c0,2.5-0.1,4.5-3.5,4.5
		c-3.5,0-3.5-2.2-3.5-4.6C108,552.3,108,541.7,108,530.6z"/>
	<path d="M192.2,242.3c7.1,10.5,8.6,22.8,11.4,35.6c-5.3-1.2-8.3-4.2-9.8-8c-2.2-5.5-3.9-11.3-3.4-17.5c0.2-3.3,0-6.5,0-9.8
		C191.1,242.5,191.6,242.4,192.2,242.3z"/>
	<path class="st0" d="M371.8,512.2c-1.3-0.9-2.6-1.8-4.3-3c-0.6,0.7-1.2,1.9-2.1,2.4c-0.9,0.5-2.2,0.7-3.3,0.5
		c-0.5-0.1-1.2-1.4-1.1-1.9c1.4-5.4,2.9-10.7,4.5-16.1c1.1-3.6,3.6-5.8,7.6-5.8c0.4,0.8,0.9,1.7,1.3,2.5c0,3.6,0,7.2,0,11.4
		c-0.7,0.9-2.5,2.5-3.1,4.4C370.7,508.3,371.5,510.3,371.8,512.2z"/>
	<path d="M332.2,433.7c-0.3-1.1-1.1-2.3-0.9-3.4c1.7-9.4,5.2-18,11.6-25.2c0.5-0.6,1.3-0.8,2.7-1.7c-1.3,10.6-3.7,19.9-8.6,28.5
		c-0.7,1.2-2.6,1.7-3.9,2.6C332.7,434.2,332.4,433.9,332.2,433.7z"/>
	<path d="M213.4,435.9c4.3-5.2,5.2-5.1,13.7,1.1c-0.1,0.5-0.1,1.2-0.5,1.7c-1.1,1.5-2.4,2.8-3.8,4.5
		C219.6,440.6,216.7,438.4,213.4,435.9z"/>
	<path d="M121.1,485c2.7-11.6,3.5-12.9,8.5-14.5c-0.4,2.9-0.6,5.7-1.3,8.3c-0.7,2.8-2,5.5-3.1,8.6
		C123.8,486.7,122.4,485.8,121.1,485z"/>
	<path d="M425,235.6c-0.8-6.8-1.7-13.5-2.6-20.5c3.7-0.9,5.9,0,5.5,4.1c-0.5,5.5-1.3,11-2,16.5C425.7,235.7,425.3,235.7,425,235.6z"
		/>
	<path d="M114.1,508.7c-8.7-5.5-8.5-10.4,0-15.3C114.1,498.4,114.1,503.1,114.1,508.7z"/>
	<path d="M475.1,452.2c4.7-0.7,8.9-1.3,13.1-1.9c2.4,5.9-2.5,5-4.8,6.1C479.9,458.1,476.8,457.7,475.1,452.2z"/>
	<path d="M161.5,447.7c-3.3,6.9-5.7,12.1-8.7,18.4c-1.4-4.7,0.8-13.3,3.7-16.6C157.4,448.6,159.2,448.5,161.5,447.7z"/>
	<path d="M425.4,198.8l0.3,0.5c-0.6,2.8-2.8,3.3-5.2,3.2c-1.2,0-2.4-0.5-3.7-0.6c-1.1-0.1-2.2,0.1-3.3,0.2c0.6-1.3,0.8-3.1,1.9-3.9
		C418.8,195.6,422.2,197.4,425.4,198.8z"/>
	<path d="M112.1,520.4c-2.1-2.4-4.2-3.8-4.2-5.1c0.1-1.5,2.2-3.9,3.5-3.9c1.4-0.1,3.7,1.9,4.1,3.4
		C115.7,516,113.7,517.8,112.1,520.4z"/>
	<path d="M183.6,414.6c2.7-7.4,9-7.8,13.2-11.2C195.1,409.6,190.2,412,183.6,414.6z"/>
	<path d="M489.4,478.4c-4.7,0.3-7.5-1.1-9.5-3.9c-0.7-1.1-0.5-2.8-0.7-4.2c1.6,0.3,3.7,0,4.7,0.9C485.9,473,487.1,475.4,489.4,478.4
		z"/>
	<path d="M420.9,244.1c-0.1,4.9-2.3,7.2-5.3,8.8c-0.7,0.3-2.2-0.3-2.9-1c-0.3-0.3,0-2.1,0.5-2.5
		C415.4,247.7,417.8,246.2,420.9,244.1z"/>
	<path d="M204.7,411.5c-3.1,4.3-6.2,8.6-9.3,12.9c0.7-6,2.6-11.1,8-13.8C203.8,410.9,204.2,411.2,204.7,411.5z"/>
	<path d="M346.5,369.7c0.5,2.8,1,5.6,1.5,8.7c-1.3,0.1-2.9,0.2-4.8,0.4c0.4-1.8,0.6-3.1,0.9-4.6c-1.6-0.4-2.9-0.7-4.3-1
		c-0.1-0.4-0.2-0.8-0.3-1.2c2.4-0.7,4.8-1.4,7.2-2.1L346.5,369.7z"/>
	<path class="st0" d="M382.3,371c-4.9-3.1-9.3-5.9-14.4-9.1c1.3-1.7,3.1-4.4,5.1-6.9c3.2-4,6.7-7.9,9.8-12c1.9-2.5,3.5-2.3,5.6-0.2
		c5.8,5.7,6.3,19,0.8,24.9c-0.5,0.6-1.3,1.2-2,1.4C385.5,369.6,382.5,370.7,382.3,371z"/>
	<path class="st0" d="M405.5,443.3c-4.6-3.6-5.6-7.5-3.9-12.1c0.5-1.2,1.9-3.2,2.5-3.1c1.4,0.2,3.3,1.4,3.7,2.6
		C409.5,435,409.4,439.3,405.5,443.3z"/>
	<path class="st0" d="M390.9,330.6c6.1,1.9,9,7.3,6.9,12c-0.4-0.1-0.8-0.2-1.1-0.4c-2.7-1.9-5.4-3.8-8.5-5.9
		C389.1,334.4,390,332.5,390.9,330.6z"/>
	<path class="st0" d="M404,425.4c1-6.5,1.8-12,2.8-18.5C410.6,412.4,409.3,420.5,404,425.4z"/>
	<path class="st0" d="M378.1,503.2c-0.7,4.6-1.4,9.2-2.1,13.8c-0.5,0.1-0.9,0.3-1.4,0.4c-1-1.8-2-3.6-2.9-5.4
		C373.8,509.1,375.9,506.2,378.1,503.2z"/>
	<path class="st0" d="M385.4,475.5c-0.6,2.5-1.2,5-2,8.2c-3.5-11.8-3.5-11.8,4.2-11.6c-0.8,1.2-1.6,2.4-2.4,3.7L385.4,475.5z"/>
	<path class="st0" d="M419.1,408.1c-2.6,4.9-5.1,9.7-7.6,14.4c-0.3-0.1-0.5-0.2-0.8-0.2c0.9-2.8,1.9-5.5,2.7-8.3
		C414.3,411.1,414,407.4,419.1,408.1z"/>
	<path class="st0" d="M481.4,548.1c0,2.7,0.4,5.5-0.1,8.1c-0.3,1.5-1.8,3.6-3.1,3.8c-1.2,0.2-3.7-1.3-4.1-2.6
		c-2.1-6.1-2.1-12.3,0.5-18.3c0.6-1.3,2.7-1.9,4.1-2.9c0.9,1.5,2.3,2.8,2.6,4.4C481.7,543,481.4,545.6,481.4,548.1
		C481.4,548.1,481.4,548.1,481.4,548.1z"/>
	<path class="st0" d="M356.4,479.2c-2.7,11.5-5.2,22.3-7.7,33.2c-0.8-0.2-1.5-0.2-1.9-0.6c-5.9-4.1-6-4.8-2.6-11.1
		c0.8-1.5,1.1-3.4,0.9-5.1C344.3,487.2,347.2,482.7,356.4,479.2z"/>
	<path class="st0" d="M291.8,541.4c2.2-1.7,3.7-3.3,5.5-4c1.9-0.6,4.7-1.1,6.1-0.1c2.2,1.5,1.4,5.7-1,7.5c-1.5,1.1-3.2,2-4.7,3.1
		c-3.6,2.6-6.9,5.4-7,10.5c0,1-1.6,1.9-2.5,2.8c-1-1.1-2.7-2.2-2.7-3.3c-0.2-6-0.2-12.1,0.1-18.2c0-1,1.5-2.5,2.4-2.6
		c1-0.1,2.3,1,3.2,1.8C291.5,539.3,291.5,540.2,291.8,541.4z"/>
	<path class="st0" d="M304.8,550.7c-0.3,2.6-0.2,5.4-1,7.8c-0.5,1.2-2.7,1.8-4.1,2.7c-0.5-1.6-1.9-3.6-1.4-4.8c1-2.4,3-4.4,4.6-6.6
		C303.5,550.1,304.1,550.4,304.8,550.7z"/>
	<path class="st0" d="M393.7,544.6c-2.9,0-4.5,0-6,0c-1.7-1.8-1-5.2,2.7-9.5C391.5,538.4,392.5,541,393.7,544.6z"/>
	<path class="st0" d="M179.7,548.7c-0.6,3.4-0.9,6.7-1.8,9.9c-0.3,1.1-2,2.4-3.1,2.4c-1.1,0-2.7-1.4-3-2.5c-2-6.5-2-13.2,0.1-19.7
		c0.4-1.1,2-2.5,3.1-2.4c1,0,2.6,1.5,2.9,2.6C178.8,542.1,179.2,545.4,179.7,548.7z"/>
	<path class="st0" d="M239.9,534.9c1,3.7,1.7,6.3,2.6,9.6c-2.5,0.2-4.2,0.4-6.3,0.6C235.6,541.3,235.6,538.2,239.9,534.9z"/>
</g>
</svg>
