<?xml version="1.0" standalone="no"?>
<!DOCTYPE svg PUBLIC "-//W3C//DTD SVG 20010904//EN"
 "http://www.w3.org/TR/2001/REC-SVG-20010904/DTD/svg10.dtd">
<svg version="1.0" xmlns="http://www.w3.org/2000/svg"
 width="472.000000pt" height="472.000000pt" viewBox="0 0 472.000000 472.000000"
 preserveAspectRatio="xMidYMid meet">
<metadata>
Created by potrace 1.14, written by Peter Selinger 2001-2017
</metadata>
<g transform="translate(0.000000,472.000000) scale(0.100000,-0.100000)"
fill="#000000" stroke="none">
<path d="M1 4445 c1 -251 5 -305 23 -259 4 11 13 14 30 10 14 -3 26 -1 28 5 2
5 16 12 31 13 15 2 34 11 41 21 12 17 80 37 126 36 44 0 144 30 166 50 11 11
39 21 61 23 22 2 45 6 52 10 14 9 105 26 154 29 l37 2 0 -97 c0 -59 -4 -98
-10 -98 -5 0 -10 4 -10 9 0 18 -32 20 -56 5 -16 -11 -23 -23 -19 -34 8 -26
-14 -36 -30 -14 -11 15 -18 17 -41 9 -34 -12 -44 -35 -15 -35 12 0 25 -8 28
-17 4 -10 20 -35 36 -55 29 -36 29 -65 0 -53 -9 3 -34 -5 -57 -18 -22 -13 -63
-31 -91 -41 -68 -24 -99 -39 -107 -52 -4 -7 -20 -15 -35 -18 -16 -4 -44 -17
-63 -30 -19 -12 -55 -30 -79 -40 -25 -9 -57 -26 -73 -37 -15 -11 -43 -23 -62
-26 -62 -10 -67 -23 -64 -177 l3 -137 62 41 c34 22 65 40 69 40 4 0 28 13 53
29 25 16 57 32 71 36 14 4 38 18 53 31 16 13 40 27 55 31 15 3 55 21 89 40 35
18 71 33 81 33 23 0 120 62 138 88 12 18 18 19 44 9 l30 -11 0 -92 c0 -68 -4
-95 -15 -104 -8 -6 -18 -9 -24 -6 -5 3 -22 -1 -37 -9 -16 -8 -40 -15 -54 -15
-14 0 -34 -7 -44 -15 -11 -9 -41 -15 -68 -15 -37 0 -48 -4 -48 -15 0 -10 -7
-15 -17 -13 -13 2 -18 -4 -18 -22 0 -19 -6 -26 -24 -28 -13 -2 -37 -17 -53
-33 -16 -16 -35 -29 -42 -29 -7 0 -21 -9 -30 -19 -10 -11 -31 -23 -47 -26 -15
-4 -38 -14 -51 -24 -13 -10 -45 -24 -73 -31 -27 -7 -62 -19 -77 -27 l-28 -14
0 -279 0 -280 28 12 c15 7 36 19 47 28 11 9 31 22 45 28 14 7 40 23 59 37 19
14 55 27 82 31 52 7 71 20 48 35 -10 6 -5 9 16 9 17 0 39 7 49 15 11 8 31 15
44 15 15 0 26 7 29 20 3 11 13 20 22 20 26 0 122 38 142 56 11 10 38 18 64 19
24 1 51 8 60 15 13 11 15 -2 15 -113 l0 -125 -42 -20 c-24 -11 -60 -23 -82
-27 -21 -3 -46 -10 -55 -14 -16 -8 -41 -17 -131 -48 -60 -20 -102 -33 -120
-38 -44 -12 -107 -38 -121 -51 -36 -33 -41 1 -5 39 46 50 43 86 -8 87 -15 0
-16 -3 -6 -15 7 -9 11 -16 9 -18 -50 -28 -52 -29 -60 -15 -6 9 -11 10 -16 2
-5 -6 -18 -14 -30 -18 -13 -4 -23 -11 -23 -16 0 -13 57 -70 70 -70 6 0 -6 -20
-26 -44 -32 -38 -39 -43 -55 -33 -15 9 -21 8 -33 -8 -13 -17 -15 -111 -15
-688 l-1 -667 23 5 c17 5 26 -1 41 -25 17 -30 17 -32 0 -44 -21 -16 -11 -36
20 -36 12 0 27 -5 34 -12 9 -9 17 -9 34 0 27 15 137 -3 227 -36 61 -23 69 -32
69 -79 0 -26 8 -43 34 -68 44 -43 55 -58 60 -81 2 -12 11 -18 23 -17 11 1 24
-5 28 -13 4 -8 18 -14 31 -14 17 0 27 -9 36 -30 7 -16 16 -30 21 -30 5 0 22
-13 39 -30 l30 -30 0 -210 c-1 -120 -5 -210 -10 -210 -13 0 -38 52 -33 67 2 6
-1 14 -6 18 -6 3 -11 1 -11 -4 0 -20 -20 -11 -30 13 -6 17 -15 23 -27 20 -24
-7 -53 25 -57 61 -2 19 -11 31 -29 39 -32 14 -92 94 -89 119 2 12 -3 17 -21
17 -13 0 -36 10 -51 23 -70 58 -111 101 -111 116 0 10 -10 17 -28 19 -19 2
-31 11 -37 28 -5 13 -14 24 -19 24 -5 0 -13 9 -16 20 -3 11 -11 20 -17 20 -6
0 -37 27 -70 60 -81 83 -88 81 -88 -31 0 -51 4 -88 9 -85 5 3 23 3 41 0 57
-12 60 -86 3 -100 -41 -11 -51 -74 -53 -362 l-1 -262 455 0 c372 1 456 3 456
14 0 9 -12 13 -37 12 -32 -1 -39 3 -41 20 -2 12 -14 26 -28 32 -53 25 -24 32
124 32 81 0 152 -4 158 -8 15 -10 28 -52 25 -79 l-2 -23 430 0 c281 0 431 3
431 10 0 6 -7 10 -15 10 -8 0 -15 9 -15 20 0 15 -7 20 -26 20 -17 0 -28 6 -31
19 -3 11 -12 22 -22 24 -9 3 23 5 71 5 48 0 85 -4 83 -8 -3 -5 -1 -11 5 -15 5
-3 10 1 10 9 0 9 4 16 9 16 11 0 21 -25 21 -55 0 -13 5 -27 10 -30 7 -4 9 2 4
19 -9 38 12 32 32 -9 l16 -35 455 0 455 0 29 31 c16 17 29 42 29 55 l0 24 134
0 c98 0 136 -3 139 -12 4 -10 6 -10 6 0 1 6 8 12 17 12 25 0 11 -23 -26 -42
-35 -18 -50 -34 -50 -56 0 -10 145 -12 705 -12 l705 0 0 100 c0 55 -4 100 -9
100 -5 0 -7 9 -4 20 3 11 0 20 -6 20 -6 0 -11 -16 -11 -36 0 -39 -27 -94 -46
-94 -7 0 -17 12 -22 28 l-10 27 -2 -35 c-1 -19 -2 -50 -3 -69 -1 -19 -6 -36
-12 -38 -15 -5 -18 163 -3 206 7 20 25 54 40 75 16 21 28 45 28 51 0 7 14 27
30 45 l30 32 -2 327 c-3 317 -4 325 -20 294 -10 -18 -30 -45 -44 -60 -14 -15
-30 -38 -35 -50 -7 -18 -15 -22 -48 -20 -32 1 -47 -5 -69 -26 -26 -25 -31 -27
-44 -13 -9 8 -24 12 -37 9 -12 -3 -21 -1 -21 6 0 6 -6 11 -14 11 -11 0 -13 -7
-6 -31 5 -16 6 -37 3 -45 -6 -16 -53 -20 -53 -4 0 6 5 10 10 10 6 0 10 5 10
10 0 18 -53 10 -77 -12 -13 -12 -26 -18 -30 -14 -4 4 -1 11 7 16 12 8 13 13 2
30 -8 14 -9 20 -1 20 6 0 9 7 5 15 -3 9 3 19 17 26 12 7 34 21 48 33 14 12 42
34 62 50 24 18 37 37 37 51 0 16 9 26 28 34 30 12 59 29 80 49 7 6 22 12 33
12 20 0 26 15 9 25 -5 3 -10 10 -10 16 0 12 47 12 55 -1 9 -14 41 -13 65 3 17
10 22 9 30 -3 6 -10 10 304 10 868 l0 882 -22 0 c-13 -1 -39 -14 -58 -30 -19
-17 -44 -30 -56 -30 -12 0 -25 -7 -28 -16 -8 -21 -8 -22 7 -27 6 -2 0 -2 -14
0 -40 6 -54 -19 -58 -104 -1 -7 -19 -16 -41 -19 -34 -6 -43 -12 -55 -40 -8
-19 -20 -34 -28 -34 -21 0 -48 -34 -51 -66 -2 -15 -13 -35 -25 -45 -13 -10
-19 -23 -15 -33 4 -12 0 -16 -16 -16 -13 0 -24 -8 -27 -20 -3 -11 -14 -20 -24
-20 -11 0 -23 -10 -29 -24 -5 -13 -21 -32 -35 -43 -15 -10 -38 -30 -52 -46
-15 -15 -32 -27 -40 -27 -7 0 -13 -7 -13 -15 0 -8 6 -15 14 -15 16 0 29 -27
20 -41 -11 -18 -44 -10 -44 11 0 14 -7 20 -22 20 -17 0 -19 -3 -10 -9 11 -7
10 -10 -3 -15 -30 -11 -35 -7 -35 29 0 24 5 35 15 35 17 0 20 16 5 25 -16 10
-12 23 11 30 11 4 25 20 31 36 5 16 22 34 36 41 15 8 29 26 34 42 4 17 23 44
43 61 19 18 35 39 35 48 0 22 -9 22 -26 0 -12 -17 -13 -17 -20 0 -9 24 -1 30
42 31 35 1 38 4 51 44 8 23 21 42 29 42 7 0 16 11 20 24 3 15 11 23 19 20 9
-4 12 1 8 14 -3 14 3 25 21 37 18 12 25 23 21 35 -6 20 22 29 81 25 22 -1 30
1 22 6 -7 5 -23 9 -35 9 -42 0 -23 20 20 21 32 1 36 3 18 8 -23 6 -23 8 -7 23
9 9 32 22 51 29 19 7 35 17 35 22 0 5 7 6 16 3 12 -4 14 -1 9 14 -5 14 -2 20
10 20 18 0 74 37 92 61 7 9 26 19 43 22 l30 7 0 176 c0 136 -3 175 -12 172 -7
-3 -14 -15 -16 -27 -3 -19 -8 -22 -30 -18 -26 5 -47 -3 -91 -35 -13 -10 -36
-18 -52 -18 -15 0 -31 -5 -35 -11 -3 -6 -16 -8 -29 -5 -16 4 -31 -3 -58 -29
-19 -18 -50 -38 -68 -43 -24 -6 -33 -14 -31 -25 2 -10 -4 -20 -13 -23 -8 -3
-15 -17 -15 -30 0 -18 -6 -24 -21 -24 -17 0 -19 3 -10 13 8 10 7 17 -1 25 -9
9 -8 12 5 12 9 0 17 5 17 11 0 5 -4 7 -10 4 -14 -9 -44 10 -63 38 -13 20 -14
32 -5 63 9 36 8 40 -21 66 l-30 27 49 54 c28 30 50 58 50 62 0 4 -16 4 -35 1
-19 -4 -44 -2 -54 4 -12 6 -22 6 -25 1 -4 -5 -1 -11 6 -13 18 -6 2 -24 -48
-53 l-47 -28 -33 39 c-32 37 -34 43 -31 108 l2 70 64 34 c35 18 83 41 105 49
23 9 57 31 76 49 43 41 78 44 111 8 34 -37 69 -53 123 -55 43 -3 47 -5 42 -25
-5 -17 -2 -23 11 -22 10 1 32 -2 49 -6 24 -5 33 -3 37 8 4 9 17 16 30 16 13 0
32 7 43 15 10 8 29 15 42 15 21 0 22 4 22 76 0 74 -1 75 -22 68 -13 -3 -31
-13 -41 -22 -13 -12 -20 -13 -29 -4 -9 9 -14 6 -22 -10 -10 -20 -62 -46 -71
-36 -3 2 -6 21 -7 41 -2 22 -8 37 -15 37 -18 0 -16 25 2 40 8 7 15 18 15 25 0
7 7 15 15 19 8 3 15 12 15 20 0 7 7 16 15 20 22 8 18 26 -5 26 -11 0 -20 -7
-20 -15 0 -8 -6 -16 -12 -17 -23 -2 -33 -5 -58 -15 -20 -8 -39 -5 -91 13 -37
13 -78 24 -93 24 -53 0 -22 22 69 50 22 7 54 18 70 25 76 30 103 38 148 42 33
4 52 11 62 26 12 18 18 19 40 9 14 -7 28 -12 30 -12 3 0 5 56 5 123 0 113 -2
126 -21 143 -26 23 -44 59 -52 100 -5 26 0 35 34 67 28 27 39 45 39 67 l0 30
-107 0 c-88 -1 -105 -3 -92 -13 9 -7 19 -28 23 -47 4 -26 4 -30 -3 -15 -10 19
-10 19 -17 -2 -6 -21 -24 -32 -24 -15 0 4 -26 9 -57 10 -31 2 -61 6 -66 9 -5
3 -26 7 -46 9 -94 9 -171 24 -171 33 0 4 -12 6 -28 3 -15 -2 -65 3 -111 12
-73 14 -226 16 -1224 16 -627 0 -1137 -3 -1134 -7 4 -3 82 -8 174 -9 214 -5
398 -18 538 -40 61 -9 148 -20 195 -24 47 -4 -204 -8 -557 -8 -567 -2 -642 0
-637 13 4 8 10 15 14 15 5 0 16 3 26 7 11 4 15 2 11 -4 -9 -14 60 -1 93 17 14
8 33 13 42 11 13 -1 16 2 12 13 -5 13 -24 16 -94 16 -76 0 -96 -4 -154 -30
-37 -17 -69 -37 -72 -45 -7 -17 -108 -22 -102 -5 2 5 28 25 58 44 l55 35 -268
1 c-220 0 -271 -3 -283 -14 -8 -8 -14 -19 -14 -24 0 -5 -14 -23 -30 -40 -17
-18 -30 -36 -30 -41 0 -5 -9 -13 -20 -16 -11 -3 -20 -13 -20 -21 0 -7 -9 -19
-20 -26 -22 -14 -26 -34 -8 -40 27 -9 -6 -27 -60 -33 -90 -9 -164 -25 -198
-42 -35 -18 -67 -11 -62 13 2 9 22 27 46 40 33 19 47 22 62 14 33 -18 65 -2
85 42 17 40 92 121 150 165 l30 22 -313 0 -312 1 1 -275z m2999 195 c0 -6 -36
-9 -92 -8 l-93 2 80 6 c44 3 86 7 93 8 6 1 12 -2 12 -8z m-282 -7 c-10 -2 -26
-2 -35 0 -10 3 -2 5 17 5 19 0 27 -2 18 -5z m1202 -2263 l0 -2220 -1565 0
-1565 0 0 2220 0 2220 1565 0 1565 0 0 -2220z m-3864 2155 c-22 -17 -46 -20
-46 -6 0 11 18 19 45 20 20 0 20 0 1 -14z m4204 -125 c0 -5 -7 -10 -15 -10 -8
0 -15 5 -15 10 0 6 7 10 15 10 8 0 15 -4 15 -10z m-78 -146 c-4 -21 -9 -24
-28 -20 -18 5 -24 2 -24 -10 0 -20 -24 -13 -28 9 -3 13 4 17 32 17 25 0 36 4
36 15 0 8 4 15 9 15 4 0 6 -12 3 -26z m-62 -843 c0 -12 -29 -35 -36 -28 -11
10 5 37 21 37 8 0 15 -4 15 -9z m-30 -55 c0 -8 -4 -18 -10 -21 -5 -3 -10 3
-10 14 0 12 5 21 10 21 6 0 10 -6 10 -14z m13 -743 c7 -40 -14 -97 -38 -101
-25 -5 -55 -31 -55 -47 0 -7 -11 -15 -25 -17 -23 -5 -25 -2 -25 34 0 42 40
108 66 108 8 0 14 6 14 13 0 41 55 50 63 10z m-3353 -68 c0 -20 -5 -35 -12
-35 -6 0 -26 -11 -44 -25 -18 -14 -40 -25 -49 -25 -12 0 -15 -6 -10 -20 5 -16
2 -20 -17 -18 -15 2 -22 -2 -20 -11 3 -17 -17 -43 -29 -35 -22 13 -7 51 32 84
23 19 49 39 58 44 9 5 30 25 47 43 17 18 34 33 38 33 3 0 6 -16 6 -35z m-270
-272 c0 -9 -7 -24 -16 -34 -15 -17 -23 -114 -10 -126 3 -4 16 -1 29 5 37 19
76 22 92 6 18 -18 18 -20 6 -42 -6 -11 -6 -37 0 -66 6 -33 5 -53 -2 -62 -7 -8
-7 -14 0 -19 12 -7 -13 -65 -28 -65 -5 0 -11 -10 -14 -21 -5 -17 -11 -20 -31
-17 -22 5 -26 2 -27 -21 0 -14 -3 -20 -6 -13 -2 6 -13 12 -24 12 -10 0 -35 18
-55 40 -29 32 -43 40 -70 40 -31 0 -34 3 -34 30 0 16 -7 33 -15 38 -10 5 -16
22 -15 48 1 86 4 99 27 102 13 2 43 29 72 65 81 101 95 116 109 116 6 1 12 -7
12 -16z m3520 -97 c0 -2 -9 -6 -20 -9 -11 -3 -20 -1 -20 4 0 5 9 9 20 9 11 0
20 -2 20 -4z m-3427 -353 c-7 -2 -13 -13 -13 -24 0 -14 -7 -19 -25 -19 -16 0
-25 6 -25 16 0 9 6 14 12 12 7 -3 19 1 26 9 7 7 19 13 25 12 9 0 8 -2 0 -6z
m-523 -197 c0 -16 -14 -36 -26 -36 -16 0 -16 2 -8 24 5 14 34 24 34 12z m674
-169 c21 -21 23 -32 25 -171 l2 -149 -39 32 c-23 17 -47 29 -55 25 -8 -3 -24
4 -35 16 -14 15 -27 20 -41 15 -15 -5 -21 -2 -21 10 0 11 -7 15 -22 13 -18 -2
-24 2 -26 23 -2 21 9 37 57 82 34 31 61 64 61 74 0 32 17 45 63 52 4 0 18 -9
31 -22z m3442 -547 c3 -8 5 -17 5 -20 0 -3 7 -13 16 -22 12 -13 12 -21 3 -38
-10 -18 -9 -22 9 -27 12 -3 21 -8 21 -12 0 -11 -110 -50 -115 -41 -8 13 13 98
32 126 12 19 13 28 5 33 -9 5 -9 14 1 34 12 26 12 26 15 4 2 -12 5 -29 8 -37z
m-76 -190 c0 -5 -4 -10 -10 -10 -5 0 -10 5 -10 10 0 6 5 10 10 10 6 0 10 -4
10 -10z m-1070 -625 c-16 -20 -60 -20 -60 0 0 11 11 15 36 15 31 0 35 -2 24
-15z m1617 -37 c-3 -7 -5 -2 -5 12 0 14 2 19 5 13 2 -7 2 -19 0 -25z"/>
<path d="M2242 4525 c-24 -7 -45 -9 -48 -4 -9 15 -24 10 -24 -7 0 -8 -4 -13
-9 -9 -5 3 -18 -6 -29 -20 -19 -24 -24 -25 -102 -21 -65 3 -86 1 -99 -11 -13
-14 -16 -14 -22 3 -7 18 -8 18 -14 -1 -7 -24 -42 -40 -104 -50 -28 -5 -54 -18
-73 -36 -17 -16 -39 -31 -49 -34 -12 -4 -19 -16 -19 -30 0 -15 -16 -36 -45
-61 l-46 -39 9 -105 9 -104 -38 -41 c-21 -22 -39 -45 -39 -50 0 -6 -16 -43
-35 -82 -19 -40 -35 -75 -35 -79 0 -4 -10 -23 -22 -43 -26 -42 -30 -59 -18
-81 6 -11 -1 -45 -21 -104 -17 -47 -31 -102 -32 -121 -2 -19 -5 -37 -9 -40 -4
-4 -5 -12 -2 -19 2 -6 -5 -38 -16 -70 -11 -33 -20 -71 -20 -85 0 -22 4 -18 23
21 32 70 44 52 49 -77 4 -93 10 -124 38 -198 18 -49 43 -101 57 -115 l23 -27
-6 152 c-5 116 -4 156 6 168 7 8 16 12 21 9 12 -7 11 -55 -1 -74 -6 -9 -5 -17
3 -22 6 -4 11 -19 12 -35 0 -18 5 -28 15 -28 25 0 32 73 23 250 -17 349 -9
463 37 517 12 14 18 17 14 7 -3 -10 -1 -20 4 -23 5 -3 39 54 76 127 42 84 80
147 105 171 l38 37 45 -25 c49 -27 50 -27 152 -27 53 1 72 5 82 19 9 12 13 13
14 3 0 -8 6 -11 16 -7 14 5 15 4 4 -9 -10 -12 -10 -15 4 -15 9 0 16 5 16 11 0
22 283 -7 363 -37 23 -9 54 -17 69 -18 15 -2 33 -8 41 -14 9 -8 17 -8 24 -1 8
8 13 8 17 0 4 -6 18 -11 31 -11 13 0 25 -5 27 -11 3 -9 10 -8 28 1 18 9 25 10
28 1 2 -7 17 -9 42 -5 35 6 40 4 51 -20 11 -22 25 -31 50 -28 14 2 41 -79 36
-106 -3 -16 -1 -34 5 -40 8 -8 8 -15 1 -24 -20 -24 -33 -91 -21 -105 8 -11 7
-12 -7 -7 -15 6 -16 4 -6 -14 6 -11 11 -31 11 -45 0 -13 11 -50 24 -83 71
-175 81 -424 27 -690 -10 -49 -14 -91 -10 -92 5 -2 9 -15 9 -28 0 -13 6 -24
13 -24 7 0 23 -11 35 -24 17 -21 18 -27 7 -36 -8 -6 -15 -35 -17 -63 -3 -48
-5 -52 -28 -52 -18 -1 -24 -6 -22 -18 2 -10 -5 -25 -14 -35 -16 -16 -17 -15
-12 11 3 15 1 27 -3 27 -9 0 -12 -25 -9 -72 1 -26 -11 -31 -36 -15 -7 4 -14 0
-18 -8 -3 -8 -17 -20 -31 -27 -13 -6 -27 -20 -31 -31 -4 -13 -9 -16 -16 -9 -8
8 -16 5 -27 -9 -23 -29 -53 -16 -40 18 13 34 11 38 -8 21 -24 -21 -51 -29 -55
-17 -2 5 -12 3 -23 -5 -17 -14 -18 -17 -5 -26 8 -5 13 -10 10 -11 -3 0 -13 -2
-22 -4 -10 -2 -18 1 -18 6 0 5 -7 9 -15 9 -9 0 -12 -6 -9 -15 4 -8 2 -15 -4
-15 -5 0 -13 -11 -16 -25 -4 -14 -14 -25 -22 -25 -11 0 -15 -6 -11 -20 3 -13
0 -20 -8 -20 -28 0 -67 -25 -80 -50 -18 -35 -77 -53 -180 -57 -84 -2 -195 -22
-195 -33 0 -4 39 -10 87 -14 129 -11 145 -15 138 -37 -7 -21 5 -25 22 -8 7 7
15 6 26 -5 19 -20 27 -20 27 -2 0 8 7 17 16 20 9 3 12 2 9 -5 -4 -6 2 -13 13
-16 29 -7 35 -50 8 -57 l-21 -6 22 -15 c12 -8 30 -12 40 -9 14 4 15 4 4 -4
-10 -7 -11 -18 -6 -38 5 -16 8 -51 7 -79 0 -59 4 -70 23 -51 9 8 24 12 37 9
16 -5 20 -3 16 9 -4 8 2 19 13 26 11 7 16 18 13 27 -4 10 0 15 11 15 17 0 17
1 0 20 -16 18 -17 20 -1 20 13 0 35 9 65 28 3 1 -4 8 -14 16 -17 12 -17 13 2
18 22 6 59 -27 43 -37 -18 -11 -10 -23 10 -18 23 6 25 0 10 -28 -9 -15 -7 -19
7 -19 10 0 25 5 33 10 12 7 12 12 2 22 -6 6 -12 21 -12 31 0 18 2 18 22 5 25
-17 32 -57 11 -65 -8 -3 -12 -12 -9 -20 3 -8 -6 -34 -20 -59 -14 -24 -24 -47
-22 -52 1 -4 26 -1 55 8 41 12 50 19 43 30 -7 12 -12 12 -22 2 -6 -6 -16 -12
-20 -12 -11 0 28 101 47 119 12 12 11 6 -4 -24 -10 -22 -17 -43 -15 -47 7 -10
84 -7 84 3 0 4 -5 11 -12 15 -8 5 -6 10 8 14 10 4 19 11 20 16 3 32 54 105 54
76 0 -5 9 -12 20 -15 26 -7 28 -61 3 -76 -13 -7 -14 -10 -4 -11 10 0 8 -6 -7
-18 -16 -14 -18 -22 -10 -36 7 -13 7 -30 -1 -55 -9 -30 -8 -38 4 -47 8 -6 18
-25 21 -42 3 -17 12 -33 20 -36 8 -3 14 -11 14 -17 0 -7 -8 -5 -20 6 -11 10
-20 15 -20 11 0 -3 -12 1 -26 10 -22 15 -27 15 -35 3 -5 -8 -9 -21 -9 -30 0
-9 -15 -59 -34 -110 -18 -52 -36 -115 -40 -141 -6 -41 -5 -48 10 -48 13 0 16
-7 11 -34 -4 -26 -2 -35 11 -38 23 -6 37 -4 35 4 -2 5 2 8 7 8 9 0 30 -40 30
-56 0 -2 -12 -4 -26 -4 -19 0 -25 -4 -22 -17 2 -13 11 -17 28 -15 21 4 22 2
11 -12 -12 -14 -11 -19 3 -34 9 -10 13 -22 9 -25 -3 -4 2 -7 11 -7 10 0 16 -6
13 -12 -2 -7 5 -26 15 -41 12 -16 17 -35 13 -45 -4 -12 -16 4 -44 59 -54 110
-145 241 -228 329 l-73 78 25 44 c24 42 69 207 60 217 -18 17 -84 -93 -110
-184 -13 -44 -28 -69 -56 -96 -21 -20 -40 -34 -42 -33 -2 2 -54 -12 -117 -31
-62 -19 -143 -38 -180 -41 l-68 -7 -31 44 c-19 26 -46 89 -68 158 -19 64 -46
136 -59 161 -12 25 -28 77 -34 115 -6 39 -29 125 -51 192 -22 67 -43 145 -46
174 -5 44 -11 54 -42 75 -38 25 -95 94 -127 154 -19 35 -19 35 -22 9 -2 -17
-11 -29 -24 -32 -24 -7 -15 -27 12 -27 26 0 34 -48 17 -98 -17 -47 -12 -59 15
-35 16 14 18 15 18 0 0 -9 -10 -23 -22 -31 -12 -9 -17 -16 -10 -16 6 0 12 -9
12 -20 0 -25 -5 -25 -37 0 -32 25 -37 21 -29 -24 9 -46 31 -64 58 -47 11 7 17
8 13 2 -18 -30 69 3 114 43 13 11 21 15 17 8 -4 -7 -1 -12 8 -12 13 0 16 -12
16 -52 0 -61 -23 -118 -76 -190 -39 -53 -39 -64 0 -54 17 4 31 21 47 56 12 28
26 47 29 43 4 -5 16 -33 27 -64 l21 -56 -28 -32 c-28 -30 -29 -34 -23 -103 3
-40 10 -79 16 -85 6 -9 6 -18 -2 -27 -13 -15 1 -32 18 -21 15 9 20 -59 26
-370 3 -159 8 -307 11 -327 l7 -38 251 0 252 0 27 83 c31 96 32 110 12 140 -8
13 -15 41 -15 63 0 21 -2 62 -6 89 -6 52 18 137 51 181 13 17 13 15 3 -21 -10
-39 -7 -110 8 -150 6 -16 5 -18 -7 -8 -18 18 -39 16 -39 -2 0 -8 7 -15 16 -15
10 0 14 -6 11 -14 -3 -7 0 -19 6 -25 8 -8 5 -17 -11 -34 -20 -21 -21 -24 -5
-40 12 -12 16 -32 15 -72 -1 -34 3 -55 10 -55 7 0 8 -19 4 -60 l-7 -60 260 0
260 0 -6 38 c-3 20 -9 51 -13 69 -6 24 -4 35 6 44 8 7 13 17 11 24 -3 6 1 19
9 30 8 10 14 28 14 39 0 12 7 34 15 50 13 24 13 31 3 38 -10 6 -8 8 4 8 10 0
24 12 32 28 l14 27 8 -29 c9 -36 -14 -165 -32 -184 -8 -7 -14 -22 -14 -31 0
-10 -9 -30 -20 -44 -11 -14 -18 -31 -15 -39 7 -18 48 -43 52 -32 12 37 88 250
122 342 40 109 40 114 21 119 -16 4 -19 11 -14 32 10 46 13 51 29 45 8 -3 15
-1 15 5 0 6 6 11 14 11 13 0 31 49 29 79 -1 8 10 23 23 33 13 11 24 25 24 31
0 7 12 20 25 30 22 16 25 16 25 2 0 -26 -31 -65 -51 -65 -25 0 -24 -20 1 -27
11 -3 20 -9 20 -13 0 -5 -9 -6 -20 -3 -15 4 -20 0 -20 -15 0 -30 17 -36 46
-18 20 14 24 23 21 51 -4 30 -1 35 23 44 22 7 32 5 53 -13 15 -11 31 -33 36
-48 9 -24 6 -31 -29 -66 -21 -21 -42 -51 -46 -67 -9 -36 17 -57 106 -86 36
-12 85 -32 110 -46 33 -18 46 -21 49 -11 2 7 14 21 27 32 l22 20 -19 28 c-11
15 -54 55 -95 89 -47 38 -71 64 -64 69 8 5 5 21 -9 58 -34 85 -87 186 -110
206 -12 11 -21 31 -21 45 0 14 -11 45 -24 67 -17 30 -20 41 -10 40 18 -3 35
-19 38 -37 3 -22 57 -74 95 -93 26 -12 37 -13 48 -4 10 8 27 8 67 -2 29 -7 59
-11 66 -8 7 2 -86 71 -206 153 -120 81 -223 151 -227 155 -11 9 13 101 24 94
14 -8 11 30 -3 45 -11 11 -7 12 21 6 23 -5 31 -4 27 4 -4 6 -13 11 -19 11 -7
0 -18 10 -26 23 -13 20 -13 21 2 8 15 -11 17 -11 17 1 0 8 -6 20 -12 26 -8 8
0 6 19 -3 37 -18 53 -57 53 -129 1 -48 2 -50 16 -31 11 15 13 33 9 68 -4 29
-3 47 3 47 6 0 8 -9 5 -20 -3 -13 0 -20 8 -20 22 0 42 17 35 28 -3 6 1 15 10
20 14 8 7 17 -45 58 l-63 49 38 8 c28 5 41 3 54 -8 22 -20 25 -19 27 4 1 15
-13 27 -58 47 -32 15 -59 34 -59 42 0 9 6 12 18 7 39 -16 87 -16 107 -1 18 13
18 15 3 16 -11 0 -15 5 -12 15 4 10 0 15 -12 15 -11 0 -15 4 -9 8 6 4 11 19
12 35 1 24 -3 27 -30 27 -26 0 -43 12 -91 62 -38 40 -54 63 -45 66 42 11 44
15 14 28 -19 8 -23 13 -12 14 18 0 25 20 6 20 -6 0 -28 18 -50 40 -22 22 -47
40 -56 40 -14 0 -14 2 2 20 10 11 24 20 31 20 35 0 23 69 -16 90 -17 9 -18 14
-8 35 7 16 19 25 34 25 54 0 70 94 34 197 -11 31 -17 66 -14 78 3 13 -2 27
-16 40 -20 18 -21 18 -36 -1 -10 -12 -9 -8 3 13 51 87 89 106 129 62 17 -19
17 -19 -10 -6 -32 17 -63 12 -76 -13 -11 -21 13 -50 25 -30 4 6 15 8 25 5 11
-3 28 -1 39 5 18 9 23 6 41 -29 11 -22 20 -47 20 -56 0 -8 7 -15 15 -15 9 0
15 9 15 21 0 11 7 28 16 37 14 13 16 30 11 97 -5 68 -39 217 -62 278 -6 14 -3
16 11 10 19 -7 21 -10 -31 72 -45 71 -76 144 -79 187 -3 42 -19 69 -85 147
-25 30 -40 51 -33 47 25 -15 10 8 -43 66 -30 32 -55 65 -55 72 0 7 -12 18 -26
24 -16 8 -24 19 -22 30 2 11 -9 29 -24 43 -15 13 -43 51 -61 84 -19 33 -39 59
-45 57 -7 -1 -12 5 -12 13 0 9 -11 20 -25 25 -14 5 -25 13 -25 18 0 4 -10 8
-21 9 -29 3 -68 40 -62 62 3 14 -19 24 -129 60 -144 46 -240 60 -303 42 -26
-7 -41 -7 -43 -1 -4 12 -6 12 -60 -5z m675 -2267 c-3 -8 -6 -5 -6 6 -1 11 2
17 5 13 3 -3 4 -12 1 -19z m12 -154 c-15 -18 -22 -13 -13 10 3 9 10 13 16 10
5 -3 4 -12 -3 -20z m187 -2 c6 -4 14 -17 18 -30 4 -13 12 -19 18 -16 8 5 9 1
5 -10 -4 -10 -7 -22 -7 -27 0 -5 -17 4 -39 19 -34 24 -37 30 -28 50 11 24 16
26 33 14z m-25 -114 c22 -36 21 -100 -2 -151 -12 -26 -39 -38 -39 -17 0 19
-19 10 -22 -10 -3 -20 -5 -19 -38 9 -19 17 -45 30 -57 31 -13 0 -23 4 -23 9 0
4 25 34 55 66 30 32 57 67 61 77 9 29 42 21 65 -14z m-1306 12 c-3 -5 -16 -15
-28 -21 -19 -9 -19 -8 3 10 28 23 34 26 25 11z m-14 -44 c-11 -13 -51 -29 -51
-20 0 3 51 33 59 34 2 0 -2 -6 -8 -14z m-96 -27 c11 -17 -1 -21 -15 -4 -8 9
-8 15 -2 15 6 0 14 -5 17 -11z m1051 -126 c-10 -10 -19 5 -10 18 6 11 8 11 12
0 2 -7 1 -15 -2 -18z m-206 3 c0 -2 -7 -9 -15 -16 -13 -11 -14 -10 -9 4 5 14
24 23 24 12z m819 -50 c14 -14 20 -26 15 -26 -6 0 -26 16 -45 36 -20 22 -26
32 -14 26 11 -6 31 -22 44 -36z m-822 -48 c-3 -8 -6 -5 -6 6 -1 11 2 17 5 13
3 -3 4 -12 1 -19z m740 -55 c-3 -10 -5 -4 -5 12 0 17 2 24 5 18 2 -7 2 -21 0
-30z m-20 -123 c1 -11 -2 -20 -8 -20 -10 0 -12 23 -2 33 9 9 9 10 10 -13z
m203 -26 c0 -9 -11 -14 -29 -14 -16 0 -31 -6 -34 -12 -3 -10 -8 -10 -18 1 -9
9 -9 11 -1 7 6 -4 12 -3 12 3 0 5 7 16 15 24 17 18 55 11 55 -9z m-205 -58
c-4 -20 -11 -36 -16 -36 -10 0 -12 34 -3 68 10 37 26 9 19 -32z m72 36 c-9 -9
-25 -37 -37 -62 -11 -25 -18 -36 -15 -25 23 77 31 95 45 99 8 2 17 4 19 5 2 0
-3 -7 -12 -17z m-87 -96 c0 -8 -4 -18 -10 -21 -5 -3 -10 3 -10 14 0 12 5 21
10 21 6 0 10 -6 10 -14z m-90 -34 c0 -15 -2 -15 -10 -2 -13 20 -13 33 0 25 6
-3 10 -14 10 -23z m88 -24 c14 -14 16 -77 2 -98 -15 -24 -44 12 -43 54 1 53
16 69 41 44z m-20 -160 c-2 -6 -10 -14 -16 -16 -7 -2 -10 2 -6 12 7 18 28 22
22 4z m-54 -64 c-3 -48 -14 -57 -14 -12 0 29 6 48 15 48 1 0 1 -16 -1 -36z
m-81 -121 c-7 -2 -21 -2 -30 0 -10 3 -4 5 12 5 17 0 24 -2 18 -5z m-19 -19
c-6 -2 -9 -19 -8 -37 2 -17 1 -23 -2 -12 -4 11 -10 25 -15 32 -10 11 3 21 26
21 6 0 5 -2 -1 -4z m-257 -161 c-16 -71 -31 -129 -32 -131 -2 -2 -12 3 -24 10
-24 15 -27 46 -7 73 8 12 11 34 8 61 -4 39 -1 47 31 79 19 19 39 35 44 35 6 0
-4 -57 -20 -127z m168 20 c4 -15 2 -23 -5 -23 -6 0 -8 5 -4 11 4 8 0 9 -15 4
-17 -5 -21 -2 -21 14 0 15 4 19 17 14 12 -5 14 -3 8 8 -5 9 -5 11 2 4 6 -5 14
-20 18 -32z m-25 -61 c0 -9 7 -11 20 -7 12 4 20 2 20 -5 0 -6 -4 -9 -9 -5 -6
3 -15 0 -21 -7 -59 -70 -80 -84 -80 -53 0 8 4 15 10 15 5 0 7 7 3 15 -3 9 0
36 7 61 l13 46 18 -23 c10 -13 19 -30 19 -37z m46 -119 c-3 -8 -10 -11 -16 -8
-14 9 -13 42 3 68 12 21 12 21 15 -11 2 -19 1 -41 -2 -49z"/>
<path d="M2668 3481 c-1 -6 -57 -11 -123 -12 -99 -2 -127 -6 -158 -22 -50 -28
-70 -59 -57 -91 9 -25 9 -25 59 -11 27 9 64 15 82 14 19 0 48 3 65 6 33 7 144
-20 144 -36 0 -5 6 -9 13 -8 26 3 36 -3 88 -51 57 -54 70 -58 89 -35 11 13 9
20 -9 38 -11 13 -21 32 -21 43 0 16 -149 174 -164 174 -2 0 -6 -4 -8 -9z"/>
<path d="M1796 3357 c-18 -17 -35 -25 -47 -22 -12 4 -22 -1 -29 -15 -8 -15
-15 -18 -24 -11 -9 8 -21 1 -45 -24 -18 -19 -30 -39 -26 -45 8 -13 42 -13 50
0 3 6 19 10 34 10 16 0 34 7 41 15 8 10 30 15 61 15 26 0 51 5 55 11 4 6 19 9
36 5 26 -5 29 -4 23 15 -6 18 -4 20 14 14 24 -7 29 13 9 33 -17 17 -28 15 -28
-5 0 -15 -2 -14 -15 4 -23 33 -74 34 -109 0z"/>
<path d="M2331 3281 c-7 -5 -10 -14 -7 -20 4 -6 1 -11 -7 -11 -23 0 -48 -36
-54 -77 -6 -46 25 -93 60 -91 12 0 29 -2 38 -6 10 -5 19 -1 22 8 4 9 2 16 -3
16 -6 0 -10 5 -10 11 0 7 11 9 28 6 34 -7 64 8 44 22 -11 6 -7 13 15 31 26 21
28 21 32 3 5 -29 32 -53 60 -54 14 0 20 -3 14 -6 -7 -2 -13 -9 -13 -15 0 -7
16 -8 48 -3 26 4 80 7 120 6 39 -1 77 1 83 5 13 8 -82 108 -123 130 -31 16
-68 19 -68 4 0 -5 -19 -10 -42 -10 -24 0 -70 -12 -103 -25 -33 -14 -62 -25
-64 -25 -2 0 13 16 35 35 26 23 34 34 23 35 -9 0 -22 -7 -29 -15 -8 -10 -23
-13 -42 -10 -24 4 -29 2 -25 -8 5 -15 -10 -37 -25 -37 -16 0 -8 29 13 49 14
13 19 26 14 40 -7 23 -13 25 -34 12z m196 -113 c-3 -7 -5 -2 -5 12 0 14 2 19
5 13 2 -7 2 -19 0 -25z m113 -23 c-7 -8 -17 -15 -22 -15 -6 0 -5 7 2 15 7 8
17 15 22 15 6 0 5 -7 -2 -15z"/>
<path d="M1900 3211 c0 -5 12 -14 28 -19 24 -9 22 -10 -24 -11 -28 -1 -71 -8
-96 -17 -48 -16 -128 -77 -116 -89 8 -8 78 16 78 26 0 10 29 39 40 39 4 0 10
-10 14 -23 6 -24 43 -47 74 -47 26 0 62 28 62 48 0 10 9 24 20 32 38 27 23 45
-52 64 -16 3 -28 2 -28 -3z m-26 -76 c-4 -8 -8 -15 -10 -15 -2 0 -4 7 -4 15 0
8 4 15 10 15 5 0 7 -7 4 -15z m61 -24 c-3 -6 -11 -11 -17 -11 -6 0 -6 6 2 15
14 17 26 13 15 -4z"/>
<path d="M3345 3080 c-3 -5 -15 -10 -26 -10 -11 0 -17 -4 -14 -10 3 -5 14 -10
24 -10 23 0 46 26 32 34 -5 4 -12 2 -16 -4z"/>
<path d="M3344 2996 c3 -22 8 -68 12 -101 8 -74 20 -52 30 58 l7 74 -28 5
c-26 5 -27 5 -21 -36z"/>
<path d="M2325 2900 c-9 -14 -6 -17 25 -22 17 -2 25 2 25 12 0 18 -40 26 -50
10z"/>
<path d="M2385 2853 c17 -39 17 -80 0 -97 -16 -15 -19 -15 -34 -1 -22 19 -74
19 -112 -1 -24 -12 -30 -20 -25 -37 9 -38 -6 -48 -67 -45 -31 2 -57 6 -57 11
0 4 -14 7 -31 7 -36 0 -35 21 1 30 36 8 37 30 2 30 -36 0 -56 -22 -47 -50 5
-17 -6 -33 -54 -82 -53 -52 -65 -60 -89 -55 -25 5 -34 0 -67 -40 -25 -29 -40
-41 -45 -33 -5 8 -14 3 -28 -15 -12 -15 -19 -32 -15 -38 3 -5 7 -25 8 -43 2
-43 10 -51 32 -33 11 9 14 10 9 2 -10 -17 16 -17 58 1 18 7 53 17 77 21 24 4
56 14 71 21 47 24 210 64 261 64 37 0 53 -5 65 -21 11 -13 34 -22 62 -26 25
-3 50 -9 55 -14 6 -4 30 -11 54 -15 23 -4 45 -12 48 -19 2 -7 13 -10 24 -8 11
3 38 0 60 -7 33 -11 42 -11 48 -1 7 10 13 10 29 2 27 -15 25 -16 47 24 12 23
24 34 33 30 10 -4 13 0 9 15 -3 11 -1 20 4 20 5 0 9 8 9 18 0 20 -29 52 -48
52 -6 0 -9 6 -6 13 3 8 -4 13 -18 14 -13 1 -24 6 -26 11 -7 21 -28 43 -47 46
-11 2 -45 16 -75 30 -30 14 -62 26 -71 26 -9 0 -24 11 -33 25 -13 19 -14 29
-5 49 15 32 4 87 -22 114 -25 27 -55 30 -44 5z m-182 -353 c16 -19 16 -20 -3
-20 -13 0 -20 7 -20 20 0 11 1 20 3 20 1 0 10 -9 20 -20z"/>
<path d="M1498 2790 c-3 -16 -2 -30 1 -30 4 0 4 -21 2 -46 -2 -25 1 -56 7 -68
6 -11 13 -33 16 -48 6 -26 71 -86 82 -76 8 9 -37 189 -62 246 -26 59 -40 66
-46 22z"/>
<path d="M3293 2778 c-33 -20 -42 -41 -23 -53 16 -10 49 14 56 41 8 33 5 34
-33 12z"/>
<path d="M3265 2605 c-18 -15 -18 -16 -1 -33 13 -12 20 -14 23 -5 3 10 10 10
25 2 13 -7 24 -7 30 -1 7 7 3 12 -11 17 -12 3 -21 13 -21 21 0 18 -20 18 -45
-1z"/>
<path d="M1520 1523 c-39 -26 -84 -73 -76 -80 9 -9 86 38 102 62 24 37 13 44
-26 18z"/>
<path d="M3561 1449 c16 -33 97 -161 124 -197 1 -1 19 5 41 15 21 9 47 15 58
14 10 -2 34 0 52 4 33 6 34 7 34 55 0 39 -4 52 -20 60 -11 6 -18 15 -15 20 3
5 -18 22 -47 37 -44 22 -69 27 -151 31 l-99 4 23 -43z"/>
<path d="M1578 1463 c-22 -25 -48 -79 -48 -99 0 -17 54 48 79 94 9 18 9 22 -2
22 -8 0 -21 -8 -29 -17z"/>
<path d="M1690 1295 c-11 -13 -7 -21 26 -50 21 -19 41 -34 44 -35 7 0 43 60
38 63 -14 9 -80 37 -87 37 -5 0 -14 -7 -21 -15z"/>
<path d="M1443 1202 c-23 -3 -32 -27 -13 -34 5 -2 -2 -41 -17 -88 -27 -90 -30
-134 -12 -188 9 -26 7 -41 -6 -74 -14 -37 -14 -42 0 -58 14 -15 13 -18 -5 -35
-11 -10 -36 -21 -56 -24 -36 -6 -65 -33 -51 -47 10 -10 190 -16 204 -7 6 5 15
21 18 36 7 25 5 27 -27 27 -19 0 -37 3 -41 6 -3 4 3 24 13 45 23 44 26 64 8
53 -7 -5 6 15 29 43 38 45 41 52 27 64 -44 36 -69 139 -55 225 5 32 8 59 7 59
0 1 -11 -1 -23 -3z"/>
<path d="M1212 1127 c-12 -29 -22 -61 -22 -71 0 -32 25 -11 45 40 11 27 23 51
28 52 15 7 6 32 -11 32 -13 0 -25 -16 -40 -53z"/>
<path d="M3778 1153 c-22 -6 -23 -26 -3 -43 22 -19 95 6 95 32 0 14 -7 18 -37
17 -21 -1 -46 -3 -55 -6z"/>
<path d="M1627 1099 c-47 -27 -59 -115 -29 -204 14 -41 21 -50 43 -52 14 -1
30 2 35 5 11 7 -13 262 -25 262 -3 0 -14 -5 -24 -11z"/>
<path d="M3370 1071 c0 -6 -8 -19 -18 -29 -30 -30 -64 -91 -57 -102 4 -6 -1
-17 -11 -24 -14 -11 -17 -29 -18 -95 -1 -75 1 -84 23 -100 28 -21 21 -41 -14
-41 -43 0 -77 -40 -83 -98 -2 -29 -8 -52 -13 -52 -5 0 -9 -13 -9 -30 0 -16 5
-30 10 -30 6 0 10 -47 10 -120 l0 -120 30 0 30 0 0 120 c0 100 3 120 15 120
12 0 15 -18 15 -100 0 -94 2 -103 25 -125 24 -25 59 -33 69 -16 3 5 24 7 46 4
l40 -6 0 152 0 151 -30 0 -30 0 0 -109 c0 -86 -3 -113 -16 -125 -36 -37 -44
-15 -44 125 l0 109 -45 0 c-38 0 -45 3 -45 19 0 32 19 71 37 78 25 9 43 29 35
37 -4 4 12 5 36 2 23 -3 42 -1 42 4 0 5 15 17 33 26 17 9 46 30 64 46 l31 30
-23 -48 -23 -49 26 -17 c15 -10 21 -18 14 -18 -7 0 -10 -4 -7 -10 10 -17 63
-11 74 8 10 16 10 16 11 -1 0 -17 9 -18 105 -15 l105 3 0 -47 c0 -47 0 -47
-29 -42 -74 15 -124 -121 -89 -238 14 -47 53 -82 83 -73 11 4 37 6 58 5 l37
-1 0 226 c0 168 -3 225 -12 225 -9 0 -9 3 0 12 7 7 12 38 12 69 0 56 -1 58
-56 108 -31 28 -66 54 -79 57 -25 6 -61 -13 -119 -65 l-30 -26 17 28 c9 15 24
38 33 51 18 29 16 31 -114 82 -46 18 -99 44 -118 59 -19 14 -34 21 -34 16z
m429 -605 c8 -9 11 -43 9 -93 -3 -71 -5 -78 -25 -81 -26 -4 -36 21 -35 94 1
76 24 113 51 80z"/>
<path d="M1019 1053 c-1 -5 -1 -11 0 -15 0 -5 -3 -8 -9 -8 -5 0 -16 -16 -24
-35 -8 -19 -19 -35 -23 -35 -4 0 -9 -21 -11 -46 -1 -29 1 -43 8 -39 5 3 10 1
10 -4 0 -23 16 -10 27 22 13 36 25 93 23 103 -1 4 3 10 8 13 5 3 12 16 16 29
6 16 3 22 -8 22 -9 0 -17 -3 -17 -7z"/>
<path d="M3784 998 c-8 -13 49 -68 71 -68 20 0 19 6 -6 46 -21 34 -51 44 -65
22z"/>
<path d="M913 973 c-7 -3 -13 -13 -13 -24 0 -11 -7 -19 -16 -19 -12 0 -15 -6
-10 -26 5 -17 1 -33 -14 -51 -22 -28 -17 -48 9 -38 9 3 3 -6 -14 -19 -16 -14
-24 -25 -16 -26 11 0 11 -3 1 -15 -9 -10 -9 -15 -1 -15 6 0 11 -7 11 -15 0 -8
7 -15 15 -15 8 0 15 -5 15 -11 0 -5 5 -7 11 -4 6 4 9 41 8 93 -2 65 2 99 15
135 20 49 19 57 -1 50z"/>
<path d="M1530 843 c0 -45 14 -74 23 -49 8 19 -2 74 -14 82 -5 3 -9 -12 -9
-33z"/>
<path d="M1160 666 c0 -35 4 -46 16 -46 12 0 14 9 12 42 -4 59 -28 63 -28 4z"/>
<path d="M843 664 c-8 -22 10 -49 32 -49 22 0 40 27 32 49 -8 21 -56 21 -64 0z"/>
<path d="M1680 630 c0 -5 7 -10 15 -10 8 0 15 5 15 10 0 6 -7 10 -15 10 -8 0
-15 -4 -15 -10z"/>
<path d="M2205 549 c-46 -64 -52 -79 -31 -79 14 0 16 -15 16 -97 0 -116 12
-147 56 -151 19 -2 38 3 47 12 13 14 16 14 27 1 16 -19 54 -19 70 0 11 14 15
14 29 0 13 -11 30 -13 68 -8 49 5 53 8 69 47 l16 41 19 -43 c16 -36 22 -42 49
-42 16 0 30 5 30 10 0 6 -14 38 -31 73 -35 68 -35 62 15 180 l16 37 -34 0
c-30 0 -36 -4 -46 -35 -6 -19 -15 -35 -19 -35 -4 0 -13 16 -20 35 -11 31 -17
35 -46 35 l-34 0 16 -37 c8 -21 23 -54 33 -73 18 -35 18 -37 -2 -83 -33 -76
-46 -62 -50 54 -3 97 -4 102 -32 126 -23 20 -37 24 -64 19 -19 -3 -43 -13 -53
-22 -18 -16 -19 -16 -19 -1 0 10 -8 17 -20 17 -16 0 -20 7 -20 35 0 19 -4 35
-9 35 -5 0 -26 -23 -46 -51z m193 -101 c3 -22 -4 -32 -38 -54 -41 -27 -70 -68
-70 -99 0 -8 -7 -15 -15 -15 -12 0 -15 17 -15 95 0 88 1 95 20 95 13 0 20 -7
20 -20 0 -26 3 -25 36 5 34 32 58 29 62 -7z m-2 -144 c-4 -13 -13 -24 -21 -24
-21 0 -19 49 3 73 17 19 17 19 20 -3 2 -12 1 -33 -2 -46z"/>
<path d="M1181 515 c-39 -33 -54 -82 -49 -159 6 -95 52 -145 122 -132 32 6 36
10 36 39 l1 32 15 -27 c37 -70 125 -60 154 17 18 47 12 166 -10 202 -38 63
-105 68 -141 10 l-19 -32 0 31 c0 51 -58 61 -109 19z m87 -44 c25 -13 24 -170
-1 -185 -21 -13 -46 1 -65 35 -17 32 -10 114 13 139 20 22 29 24 53 11z m133
-18 c13 -35 7 -149 -9 -165 -8 -8 -15 -8 -27 2 -11 9 -15 32 -15 82 0 98 28
142 51 81z"/>
<path d="M1840 512 c-55 -55 -50 -227 7 -272 47 -37 123 -15 123 35 0 30 -14
39 -30 20 -28 -33 -70 -6 -70 44 0 18 6 21 50 21 l50 0 0 38 c0 83 -34 142
-83 142 -10 0 -31 -13 -47 -28z m64 -54 c10 -39 7 -48 -19 -48 -23 0 -25 3
-19 28 12 49 28 57 38 20z"/>
<path d="M3036 515 c-24 -23 -27 -23 -21 -5 6 17 2 20 -28 20 -20 0 -38 -6
-40 -12 -4 -10 -6 -10 -6 0 -1 7 -15 12 -36 12 l-35 0 0 -150 0 -150 35 0 35
0 0 90 c0 99 18 154 47 148 14 -2 16 -16 14 -74 -4 -122 41 -187 117 -168 34
8 37 12 40 49 3 38 3 39 -16 22 -35 -32 -64 -18 -77 36 l-7 27 56 0 56 0 0 33
c0 47 -19 106 -41 128 -26 26 -61 24 -93 -6z m65 -73 c6 -29 4 -32 -17 -32
-25 0 -28 9 -18 48 9 31 27 22 35 -16z"/>
<path d="M840 380 l0 -150 35 0 35 0 0 150 0 150 -35 0 -35 0 0 -150z"/>
<path d="M930 380 l0 -150 30 0 30 0 0 108 c0 95 2 111 19 126 34 31 41 11 41
-115 l0 -119 30 0 30 0 0 128 c0 147 -9 172 -64 172 -17 0 -37 -5 -44 -12 -9
-9 -12 -9 -12 0 0 7 -13 12 -30 12 l-30 0 0 -150z"/>
<path d="M1490 380 l0 -150 30 0 30 0 0 109 c0 86 3 113 16 125 36 37 44 15
44 -125 l0 -109 30 0 30 0 0 109 c0 86 3 113 16 125 36 37 44 15 44 -125 l0
-109 30 0 30 0 0 128 c0 148 -9 172 -65 172 -18 0 -40 -7 -48 -15 -13 -13 -16
-13 -27 0 -15 18 -71 20 -88 3 -9 -9 -12 -9 -12 0 0 7 -13 12 -30 12 l-30 0 0
-150z"/>
<path d="M3490 379 l0 -149 30 0 30 0 0 114 c0 87 3 116 15 126 28 23 35 0 35
-121 l0 -119 36 0 36 0 -4 129 c-4 163 -9 170 -109 170 l-69 0 0 -150z"/>
<path d="M415 2103 c-7 -19 9 -38 24 -29 16 10 14 33 -3 39 -8 3 -17 -1 -21
-10z"/>
<path d="M4610 3011 c0 -5 5 -13 10 -16 6 -3 10 -2 10 4 0 5 -4 13 -10 16 -5
3 -10 2 -10 -4z"/>
<path d="M4690 2980 c0 -5 5 -10 10 -10 6 0 10 5 10 10 0 6 -4 10 -10 10 -5 0
-10 -4 -10 -10z"/>
<path d="M4475 2900 c-3 -5 -2 -10 4 -10 5 0 13 5 16 10 3 6 2 10 -4 10 -5 0
-13 -4 -16 -10z"/>
<path d="M290 2781 c0 -5 -9 -13 -20 -16 -11 -3 -20 -13 -20 -20 0 -8 6 -12
14 -9 19 7 50 54 36 54 -5 0 -10 -4 -10 -9z"/>
<path d="M95 2710 c-3 -5 -1 -10 4 -10 6 0 11 5 11 10 0 6 -2 10 -4 10 -3 0
-8 -4 -11 -10z"/>
<path d="M10 2645 c-10 -13 -9 -15 9 -15 11 0 21 4 21 9 0 18 -18 21 -30 6z"/>
<path d="M4322 941 c4 -13 18 -16 19 -4 0 4 -5 9 -11 12 -7 2 -11 -2 -8 -8z"/>
<path d="M630 685 c0 -8 5 -15 10 -15 6 0 10 7 10 15 0 8 -4 15 -10 15 -5 0
-10 -7 -10 -15z"/>
<path d="M575 670 c3 -5 8 -10 11 -10 2 0 4 5 4 10 0 6 -5 10 -11 10 -5 0 -7
-4 -4 -10z"/>
<path d="M695 400 c3 -5 13 -10 21 -10 8 0 12 5 9 10 -3 6 -13 10 -21 10 -8 0
-12 -4 -9 -10z"/>
<path d="M4626 264 c-10 -25 -7 -34 9 -28 8 4 15 15 15 25 0 23 -16 25 -24 3z"/>
<path d="M4610 190 c0 -5 5 -10 10 -10 6 0 10 5 10 10 0 6 -4 10 -10 10 -5 0
-10 -4 -10 -10z"/>
<path d="M1056 85 c4 -8 11 -15 16 -15 6 0 5 6 -2 15 -7 8 -14 15 -16 15 -2 0
-1 -7 2 -15z"/>
<path d="M850 70 c0 -5 9 -10 21 -10 11 0 17 5 14 10 -3 6 -13 10 -21 10 -8 0
-14 -4 -14 -10z"/>
<path d="M1070 46 c0 -9 5 -16 10 -16 6 0 10 4 10 9 0 6 -4 13 -10 16 -5 3
-10 -1 -10 -9z"/>
</g>
</svg>
